<svg width="127" height="42" viewBox="0 0 127 42" fill="none" xmlns="http://www.w3.org/2000/svg">
<path d="M6.4 10.98C6.41333 10.66 6.44 10.2867 6.48 9.86C6.52 9.42 6.56 9.04 6.6 8.72C6.57333 8.52 6.57333 8.32 6.6 8.12C6.62667 7.90667 6.63333 7.7 6.62 7.5C6.62 7.42 6.62 7.34 6.62 7.26C6.63333 7.16667 6.64 7.08 6.64 7C6.70667 6.68 6.74 6.35333 6.74 6.02C6.74 5.68667 6.77333 5.32 6.84 4.92V4.68C7.10667 4.74667 7.35333 4.80667 7.58 4.86C7.82 4.9 8.06667 4.92 8.32 4.92C8.25333 5.12 8.21333 5.32 8.2 5.52C8.18667 5.72 8.18 5.91333 8.18 6.1C8.18 6.48667 8.16 6.87333 8.12 7.26C8.09333 7.63333 8.08 8.01333 8.08 8.4C8.08 8.48 8.07333 8.56667 8.06 8.66C8.04667 8.74 8.04 8.82 8.04 8.9C8.05333 9.00667 8.05333 9.14 8.04 9.3C8.04 9.46 8.04 9.62667 8.04 9.8C8.04 9.97333 8.04 10.14 8.04 10.3C8.05333 10.46 8.07333 10.5933 8.1 10.7C8.06 11.02 8.04667 11.3467 8.06 11.68C8.08667 12 8.09333 12.32 8.08 12.64C8.05333 12.8667 8.04667 13.0867 8.06 13.3C8.07333 13.5 8.08 13.7133 8.08 13.94C8.08 14.1667 8.08 14.3933 8.08 14.62C8.09333 14.8467 8.1 15.0733 8.1 15.3C8.1 15.5267 8.08 15.8 8.04 16.12C8 16.4267 7.98667 16.6933 8 16.92C8 17.24 7.98667 17.52 7.96 17.76C7.94667 18 7.94 18.2533 7.94 18.52C7.94 18.64 7.90667 18.7133 7.84 18.74C7.77333 18.78 7.66667 18.8 7.52 18.8C7.33333 18.8267 7.16667 18.8333 7.02 18.82C6.87333 18.8067 6.70667 18.8 6.52 18.8C6.38667 18.8 6.30667 18.7733 6.28 18.72C6.26667 18.6667 6.26 18.6133 6.26 18.56V18.2C6.24667 18.1867 6.23333 18.1667 6.22 18.14C6.20667 18.1133 6.19333 18.0933 6.18 18.08C6.16667 18.08 6.15333 18.0733 6.14 18.06C6.07333 18.1267 5.98 18.1733 5.86 18.2C5.74 18.2267 5.62 18.2733 5.5 18.34C5.3 18.4733 5.07333 18.5667 4.82 18.62C4.58 18.6733 4.32667 18.7 4.06 18.7C3.87333 18.7 3.70667 18.6933 3.56 18.68C3.42667 18.68 3.3 18.6533 3.18 18.6C3.11333 18.6 3.06667 18.5733 3.04 18.52C3.02667 18.48 2.98667 18.46 2.92 18.46C2.65333 18.3267 2.42 18.1867 2.22 18.04C2.02 17.9067 1.82667 17.7467 1.64 17.56C1.44 17.36 1.28667 17.16 1.18 16.96C1.08667 16.76 0.973333 16.5267 0.84 16.26C0.786667 16.0733 0.746667 15.8867 0.72 15.7C0.706667 15.5 0.666667 15.3067 0.6 15.12C0.6 14.8533 0.606667 14.6 0.62 14.36C0.646667 14.1067 0.72 13.8867 0.84 13.7C0.906667 13.3667 1.03333 13.0733 1.22 12.82C1.40667 12.5667 1.62667 12.3467 1.88 12.16C2.01333 12.0267 2.16667 11.92 2.34 11.84C2.52667 11.76 2.72 11.6867 2.92 11.62C3.05333 11.62 3.2 11.62 3.36 11.62C3.53333 11.6067 3.68667 11.5667 3.82 11.5C4.00667 11.5 4.17333 11.5067 4.32 11.52C4.48 11.52 4.66 11.5533 4.86 11.62C4.91333 11.6867 4.99333 11.7333 5.1 11.76C5.20667 11.7867 5.29333 11.8333 5.36 11.9C5.48 11.9667 5.60667 12.0333 5.74 12.1C5.87333 12.1533 6.00667 12.2067 6.14 12.26C6.20667 12.2067 6.24 12.1267 6.24 12.02C6.24 11.9 6.27333 11.7667 6.34 11.62C6.34 11.5533 6.34667 11.4667 6.36 11.36C6.38667 11.2533 6.4 11.1267 6.4 10.98ZM4.06 13.44C3.80667 13.5733 3.61333 13.78 3.48 14.06C3.36 14.3267 3.3 14.5867 3.3 14.84C3.3 14.9867 3.32 15.1 3.36 15.18C3.4 15.26 3.42 15.36 3.42 15.48C3.42 15.68 3.48 15.8467 3.6 15.98C3.72 16.1133 3.87333 16.2533 4.06 16.4C4.22 16.5333 4.44 16.5333 4.72 16.4C4.84 16.2533 4.97333 16.1133 5.12 15.98C5.28 15.8333 5.36 15.6333 5.36 15.38C5.42667 15.1133 5.44 14.88 5.4 14.68C5.36 14.48 5.30667 14.28 5.24 14.08C5.17333 13.8933 5.05333 13.74 4.88 13.62C4.70667 13.5 4.52 13.44 4.32 13.44H4.06ZM16.9058 18.48L16.7658 18.5C16.6991 18.5133 16.6524 18.5133 16.6258 18.5C16.6124 18.5 16.5524 18.5 16.4458 18.5C16.4324 18.5 16.3924 18.5067 16.3258 18.52C16.2591 18.5333 16.1858 18.5467 16.1058 18.56C16.0258 18.5733 15.9391 18.5733 15.8458 18.56C15.7524 18.56 15.6791 18.5467 15.6258 18.52C15.5591 18.52 15.5124 18.5133 15.4858 18.5C15.4591 18.4867 15.4124 18.48 15.3458 18.48C15.2791 18.4267 15.2391 18.3467 15.2258 18.24C15.2258 18.1333 15.2258 18.0467 15.2258 17.98V17.48L15.0658 17.7L14.7058 18.04C14.5724 18.1333 14.4591 18.2067 14.3658 18.26C14.2858 18.3267 14.1858 18.3933 14.0658 18.46C13.8658 18.58 13.6458 18.66 13.4058 18.7C13.1791 18.74 12.9658 18.76 12.7658 18.76C12.5658 18.76 12.3524 18.72 12.1258 18.64C11.9124 18.56 11.7191 18.4867 11.5458 18.42C11.4924 18.4067 11.4391 18.38 11.3858 18.34C11.3458 18.3133 11.3058 18.2867 11.2658 18.26C11.1858 18.1933 11.0924 18.1267 10.9858 18.06C10.8924 17.9933 10.8124 17.9267 10.7458 17.86C10.7058 17.8333 10.6658 17.8067 10.6258 17.78C10.5991 17.74 10.5591 17.7067 10.5058 17.68C10.4391 17.64 10.3791 17.5733 10.3258 17.48C10.2591 17.3333 10.1724 17.1933 10.0658 17.06C9.97245 16.9133 9.89245 16.7467 9.82578 16.56C9.78578 16.4133 9.73245 16.2733 9.66578 16.14C9.59911 16.0067 9.56578 15.88 9.56578 15.76C9.56578 15.6933 9.55911 15.58 9.54578 15.42C9.53245 15.26 9.52578 15.1467 9.52578 15.08C9.52578 14.96 9.52578 14.8667 9.52578 14.8C9.53911 14.7333 9.54578 14.6333 9.54578 14.5C9.54578 14.4333 9.55245 14.3667 9.56578 14.3C9.59245 14.22 9.61911 14.12 9.64578 14C9.67245 13.8533 9.69245 13.7 9.70578 13.54C9.71911 13.3667 9.73911 13.2267 9.76578 13.12C9.85911 12.9467 9.91911 12.84 9.94578 12.8C9.98578 12.76 10.0191 12.6867 10.0458 12.58C10.0724 12.5 10.1058 12.4 10.1458 12.28C10.1991 12.1467 10.2724 12.0467 10.3658 11.98C10.4058 11.9533 10.4658 11.9067 10.5458 11.84C10.6258 11.7733 10.7058 11.7 10.7858 11.62C10.8791 11.54 10.9591 11.4733 11.0258 11.42C11.0924 11.3533 11.1391 11.32 11.1658 11.32L11.5258 11.16C11.6324 11.12 11.7524 11.0933 11.8858 11.08C12.0191 11.0533 12.1458 11.04 12.2658 11.04L12.8858 11.02C12.9524 11.02 13.0258 11.02 13.1058 11.02C13.1991 11.02 13.2591 11.0267 13.2858 11.04C13.3524 11.04 13.4191 11.06 13.4858 11.1C13.5524 11.14 13.6191 11.16 13.6858 11.16C13.7524 11.16 13.8324 11.1867 13.9258 11.24C14.0324 11.28 14.1191 11.3333 14.1858 11.4C14.3191 11.4533 14.4191 11.52 14.4858 11.6C14.5658 11.6667 14.6391 11.7333 14.7058 11.8C14.7724 11.8667 14.8324 11.9333 14.8858 12C14.9524 12.0533 15.0191 12.1133 15.0858 12.18C15.0858 12.22 15.1124 12.2533 15.1658 12.28C15.1924 12.2933 15.2124 12.3067 15.2258 12.32C15.2524 12.2933 15.2658 12.24 15.2658 12.16C15.2791 12.08 15.3058 12.0067 15.3458 11.94C15.3591 11.7533 15.3658 11.5867 15.3658 11.44C15.3791 11.28 15.3924 11.1733 15.4058 11.12C15.3924 11.0667 15.3991 10.9933 15.4258 10.9C15.4524 10.7933 15.4991 10.7533 15.5658 10.78C15.5924 10.7667 15.6524 10.7667 15.7458 10.78C15.8391 10.7933 15.9458 10.8133 16.0658 10.84C16.1858 10.8533 16.3058 10.8667 16.4258 10.88C16.5591 10.8933 16.6724 10.9 16.7658 10.9C16.7791 10.9 16.7858 10.9333 16.7858 11C16.7858 11.0667 16.7791 11.12 16.7658 11.16L16.8858 13.08V15.24C16.8858 15.28 16.8791 15.32 16.8658 15.36C16.8658 15.4 16.8658 15.44 16.8658 15.48C16.8791 15.6 16.8858 15.7267 16.8858 15.86C16.8858 15.98 16.8858 16.1067 16.8858 16.24C16.8991 16.3333 16.8991 16.4333 16.8858 16.54C16.8858 16.6333 16.8858 16.7333 16.8858 16.84C16.8858 16.92 16.8858 17.0333 16.8858 17.18C16.8991 17.3133 16.9058 17.4533 16.9058 17.6C16.9058 17.7467 16.9058 17.8867 16.9058 18.02C16.9058 18.1667 16.9058 18.2867 16.9058 18.38V18.48ZM14.3258 15.46V15.4C14.3258 15.32 14.3391 15.1467 14.3658 14.88C14.3924 14.6 14.3324 14.26 14.1858 13.86C14.1458 13.7533 14.0858 13.64 14.0058 13.52C13.9258 13.4 13.7991 13.3067 13.6258 13.24C13.5324 13.2133 13.4458 13.1867 13.3658 13.16C13.2858 13.12 13.1991 13.1067 13.1058 13.12C13.0124 13.1467 12.8924 13.2067 12.7458 13.3C12.6124 13.3933 12.4991 13.5067 12.4058 13.64C12.3391 13.7067 12.2991 13.78 12.2858 13.86C12.2724 13.94 12.2591 14.0333 12.2458 14.14C12.2058 14.3133 12.1724 14.4467 12.1458 14.54C12.1324 14.6333 12.1258 14.7533 12.1258 14.9C12.1258 15.1667 12.1991 15.4 12.3458 15.6C12.5058 15.8 12.6058 15.9333 12.6458 16C12.6858 16.04 12.7191 16.0667 12.7458 16.08C12.7858 16.08 12.8391 16.1133 12.9058 16.18C13.0391 16.2467 13.1658 16.26 13.2858 16.22C13.4058 16.1667 13.5391 16.1067 13.6858 16.04H13.8058C13.9258 15.9733 14.0258 15.9067 14.1058 15.84C14.1858 15.7733 14.2591 15.6733 14.3258 15.54V15.46ZM22.812 16.98C22.9454 16.86 23.0454 16.7333 23.112 16.6C23.1787 16.4533 23.212 16.28 23.212 16.08C23.212 15.96 23.1787 15.84 23.112 15.72C23.0454 15.6 22.9454 15.5067 22.812 15.44C22.492 15.32 22.1654 15.2 21.832 15.08C21.4987 14.96 21.1387 14.8667 20.752 14.8C20.5654 14.7333 20.3654 14.6667 20.152 14.6C19.952 14.5333 19.7187 14.4667 19.452 14.4C18.9187 14.1467 18.5854 13.72 18.452 13.12C18.452 12.8667 18.452 12.62 18.452 12.38C18.452 12.14 18.512 11.8933 18.632 11.64C18.712 11.4533 18.7787 11.32 18.832 11.24C18.8987 11.1467 18.9587 11.08 19.012 11.04C19.0787 10.9867 19.1387 10.9467 19.192 10.92C19.2587 10.88 19.332 10.8267 19.412 10.76C19.7187 10.64 19.9787 10.5533 20.192 10.5C20.4187 10.4333 20.692 10.3667 21.012 10.3C21.1454 10.2333 21.272 10.1933 21.392 10.18C21.5254 10.1667 21.652 10.16 21.772 10.16H22.852C23.052 10.16 23.2387 10.16 23.412 10.16C23.5854 10.1467 23.7654 10.1467 23.952 10.16C24.2454 10.1733 24.5187 10.2 24.772 10.24C25.0254 10.28 25.3187 10.3333 25.652 10.4C25.9587 10.44 26.1787 10.4867 26.312 10.54C26.2854 10.6067 26.2587 10.7133 26.232 10.86C26.2187 11.0067 26.2054 11.1533 26.192 11.3C26.192 11.3267 26.1854 11.3533 26.172 11.38C26.172 11.3933 26.172 11.4133 26.172 11.44C26.172 11.5067 26.152 11.5467 26.112 11.56C26.0854 11.5733 26.052 11.5733 26.012 11.56C25.9854 11.5467 25.952 11.5333 25.912 11.52C25.6854 11.4933 25.452 11.48 25.212 11.48C24.972 11.48 24.732 11.4867 24.492 11.5C24.252 11.5133 24.012 11.54 23.772 11.58C23.532 11.62 23.2987 11.6533 23.072 11.68C22.9654 11.7067 22.8654 11.7333 22.772 11.76C22.6787 11.7733 22.5854 11.7933 22.492 11.82C22.3854 11.8467 22.2854 11.88 22.192 11.92C22.112 11.96 22.0187 12.0133 21.912 12.08C21.7787 12.24 21.6854 12.3867 21.632 12.52C21.5654 12.68 21.532 12.84 21.532 13C21.5054 13.0667 21.5054 13.1733 21.532 13.32C21.5587 13.4533 21.612 13.5667 21.692 13.66C21.8654 13.8467 22.0254 13.9667 22.172 14.02C22.4254 14.0867 22.6654 14.1467 22.892 14.2C23.132 14.2533 23.3454 14.3067 23.532 14.36C23.5987 14.36 23.672 14.3733 23.752 14.4C23.832 14.4267 23.9054 14.44 23.972 14.44C24.2387 14.4667 24.4787 14.5133 24.692 14.58C24.9054 14.6333 25.1387 14.7067 25.392 14.8C25.5787 14.8667 25.7654 14.94 25.952 15.02C26.152 15.0867 26.3454 15.18 26.532 15.3C26.6787 15.5 26.7854 15.6733 26.852 15.82C26.932 15.9667 27.0054 16.14 27.072 16.34V16.86C27.072 16.9933 27.0454 17.12 26.992 17.24C26.9387 17.36 26.8787 17.4533 26.812 17.52C26.6787 17.8667 26.4187 18.1667 26.032 18.42C25.7787 18.6067 25.512 18.76 25.232 18.88C24.9654 19.0133 24.672 19.1067 24.352 19.16C23.8987 19.3067 23.4387 19.3867 22.972 19.4C22.5187 19.4267 22.0387 19.4067 21.532 19.34L20.432 19.24C20.312 19.2267 20.172 19.2067 20.012 19.18C19.852 19.1533 19.692 19.1133 19.532 19.06C19.3054 18.9933 19.1387 18.9533 19.032 18.94C18.9387 18.94 18.8854 18.9267 18.872 18.9C18.8587 18.8733 18.8454 18.8467 18.832 18.82C18.8187 18.8067 18.812 18.7933 18.812 18.78C18.7454 18.6333 18.7054 18.4933 18.692 18.36C18.6787 18.24 18.6387 18.0867 18.572 17.9C18.5454 17.8333 18.5254 17.7733 18.512 17.72C18.4987 17.6667 18.4854 17.6133 18.472 17.56V17.5C18.472 17.4733 18.4654 17.4533 18.452 17.44C18.452 17.4267 18.4587 17.4067 18.472 17.38C18.5387 17.38 18.592 17.3867 18.632 17.4C18.6854 17.4133 18.7454 17.42 18.812 17.42C18.972 17.46 19.152 17.5 19.352 17.54C19.5654 17.58 19.732 17.6 19.852 17.6C19.972 17.6 20.1054 17.6067 20.252 17.62C20.3987 17.62 20.5654 17.62 20.752 17.62C20.912 17.6333 21.0787 17.64 21.252 17.64C21.4254 17.64 21.5987 17.6067 21.772 17.54C21.812 17.5 21.8787 17.46 21.972 17.42C22.0654 17.38 22.1654 17.34 22.272 17.3C22.3787 17.2467 22.4787 17.2 22.572 17.16C22.6787 17.1067 22.7587 17.0467 22.812 16.98ZM28.7758 17.72C28.7624 17.6133 28.7424 17.4533 28.7158 17.24C28.7024 17.0267 28.6891 16.8133 28.6758 16.6C28.6624 16.3733 28.6491 16.1733 28.6358 16C28.6224 15.8133 28.6224 15.6933 28.6358 15.64C28.6358 15.5867 28.6358 15.5 28.6358 15.38C28.6358 15.2467 28.6291 15.1133 28.6158 14.98C28.6024 14.8333 28.5891 14.7 28.5758 14.58C28.5758 14.4467 28.5758 14.3467 28.5758 14.28C28.5891 13.8667 28.5891 13.44 28.5758 13C28.5758 12.56 28.5958 12.14 28.6358 11.74C28.6358 11.6733 28.6358 11.5667 28.6358 11.42C28.6491 11.26 28.6558 11.1467 28.6558 11.08C28.6558 11.0133 28.6491 10.9267 28.6358 10.82C28.6224 10.7 28.6291 10.6067 28.6558 10.54C28.6558 10.42 28.6558 10.2733 28.6558 10.1C28.6558 9.92667 28.6558 9.76 28.6558 9.6C28.6558 9.42667 28.6558 9.28 28.6558 9.16C28.6558 9.02667 28.6558 8.94 28.6558 8.9C28.6424 8.83333 28.6358 8.67333 28.6358 8.42C28.6491 8.16667 28.6691 7.93333 28.6958 7.72C28.7224 7.61333 28.7224 7.5 28.6958 7.38C28.6824 7.24667 28.6891 7.12667 28.7158 7.02C28.7558 6.82 28.7758 6.62 28.7758 6.42C28.7758 6.22 28.7758 6.01333 28.7758 5.8C28.7758 5.52 28.7758 5.24667 28.7758 4.98C28.7891 4.71333 28.7958 4.44 28.7958 4.16H30.2158C30.2024 4.32 30.2158 4.52 30.2558 4.76C30.3091 4.98667 30.3358 5.18 30.3358 5.34L30.4558 7.98C30.4424 8.16667 30.4358 8.36 30.4358 8.56C30.4491 8.74667 30.4558 8.94 30.4558 9.14C30.4424 9.35333 30.4358 9.57333 30.4358 9.8C30.4491 10.0133 30.4558 10.2333 30.4558 10.46C30.4558 10.66 30.4624 10.86 30.4758 11.06C30.4891 11.2467 30.5291 11.44 30.5958 11.64C30.6624 11.5733 30.7358 11.5133 30.8158 11.46C30.8958 11.3933 30.9758 11.3533 31.0558 11.34C31.4424 11.0733 31.8824 10.94 32.3758 10.94C32.4424 10.94 32.5358 10.9267 32.6558 10.9C32.7758 10.8733 32.9024 10.86 33.0358 10.86C33.1024 10.86 33.1691 10.8667 33.2358 10.88C33.3158 10.8933 33.4224 10.9333 33.5558 11C33.7558 11.0533 33.9491 11.1333 34.1358 11.24C34.3224 11.3467 34.5091 11.4333 34.6958 11.5C34.8424 11.6067 34.9624 11.7067 35.0558 11.8C35.1491 11.88 35.2291 11.96 35.2958 12.04C35.3624 12.12 35.4291 12.2 35.4958 12.28C35.5624 12.36 35.6424 12.4467 35.7358 12.54C35.9358 12.7933 36.0691 13.0267 36.1358 13.24C36.2158 13.4533 36.2558 13.6867 36.2558 13.94C36.3224 14.3267 36.3558 14.6933 36.3558 15.04C36.3691 15.3867 36.3758 15.7533 36.3758 16.14C36.3758 16.4733 36.3691 16.8 36.3558 17.12C36.3424 17.44 36.3158 17.7133 36.2758 17.94C36.2491 18.1133 36.2424 18.2 36.2558 18.2C35.9224 18.2 35.5891 18.2067 35.2558 18.22C34.9358 18.2333 34.5824 18.2733 34.1958 18.34C34.1691 18.26 34.1624 18.1667 34.1758 18.06C34.1891 17.9533 34.1958 17.8667 34.1958 17.8C34.1824 17.7067 34.1824 17.6 34.1958 17.48C34.2224 17.3467 34.2358 17.2 34.2358 17.04C34.2358 16.8 34.2291 16.54 34.2158 16.26C34.2024 15.98 34.1958 15.7267 34.1958 15.5C34.1958 15.2333 34.1891 14.9667 34.1758 14.7C34.1624 14.4333 34.1224 14.14 34.0558 13.82C34.0558 13.7 34.0358 13.5733 33.9958 13.44C33.9691 13.3067 33.9558 13.1733 33.9558 13.04C33.9158 12.9733 33.8824 12.9067 33.8558 12.84C33.8291 12.7733 33.7891 12.7267 33.7358 12.7C33.6424 12.6467 33.5424 12.56 33.4358 12.44C33.3424 12.36 33.1758 12.3 32.9358 12.26C32.7091 12.2067 32.5224 12.2133 32.3758 12.28C32.2558 12.3467 32.1358 12.4133 32.0158 12.48C31.8958 12.5333 31.8024 12.5933 31.7358 12.66C31.6024 12.7267 31.4824 12.8467 31.3758 13.02C31.2824 13.1933 31.2358 13.38 31.2358 13.58C30.9691 14.2333 30.8358 14.96 30.8358 15.76C30.8091 16 30.7958 16.2333 30.7958 16.46C30.7958 16.6733 30.7958 16.8867 30.7958 17.1C30.7958 17.22 30.7824 17.34 30.7558 17.46C30.7424 17.5667 30.7358 17.68 30.7358 17.8V18.58C30.4024 18.58 30.0758 18.6 29.7558 18.64C29.5558 18.6667 29.3624 18.7133 29.1758 18.78C29.1091 18.8067 29.0424 18.8333 28.9758 18.86C28.9224 18.8867 28.8624 18.8933 28.7958 18.88C28.7424 18.8133 28.7291 18.7133 28.7558 18.58C28.7958 18.4467 28.8091 18.3267 28.7958 18.22C28.7824 18.1133 28.7758 18.02 28.7758 17.94C28.7891 17.86 28.7891 17.7867 28.7758 17.72Z" fill="#84BBAB"/>
<path d="M34.5618 25.2414C34.5618 25.3481 34.5685 25.4081 34.5818 25.4214C34.5951 25.4347 34.5885 25.5147 34.5618 25.6614V28.9814C34.5618 29.2481 34.5418 29.5281 34.5018 29.8214C34.4618 30.1014 34.4418 30.3747 34.4418 30.6414C34.4418 30.8814 34.4285 31.0947 34.4018 31.2814C34.3751 31.4547 34.3618 31.6347 34.3618 31.8214C34.3618 31.9281 34.3351 32.0947 34.2818 32.3214C34.2418 32.5481 34.1885 32.7547 34.1218 32.9414C34.0685 32.9947 34.0351 33.0681 34.0218 33.1614C34.0085 33.2547 33.9685 33.3614 33.9018 33.4814C33.8885 33.5081 33.8418 33.5881 33.7618 33.7214C33.6818 33.8414 33.5885 33.9681 33.4818 34.1014C33.3885 34.2347 33.3018 34.3614 33.2218 34.4814C33.1418 34.5881 33.0951 34.6481 33.0818 34.6614C32.9085 34.8081 32.7685 34.9281 32.6618 35.0214C32.5685 35.1014 32.4085 35.1881 32.1818 35.2814C32.1551 35.3081 32.0818 35.3281 31.9618 35.3414C31.8418 35.3547 31.7685 35.3747 31.7418 35.4014C31.6351 35.4547 31.5018 35.4881 31.3418 35.5014C31.1951 35.5147 31.0351 35.5547 30.8618 35.6214H30.5018C30.3551 35.6481 30.2018 35.6614 30.0418 35.6614C29.8951 35.6747 29.7818 35.6814 29.7018 35.6814C29.5418 35.6814 29.3418 35.6747 29.1018 35.6614C28.8751 35.6614 28.6351 35.6547 28.3818 35.6414C28.1418 35.6414 27.9018 35.6347 27.6618 35.6214C27.4218 35.6214 27.2085 35.6214 27.0218 35.6214C26.8351 35.6214 26.6351 35.6014 26.4218 35.5614C26.2218 35.5081 26.0485 35.4547 25.9018 35.4014C25.8751 35.3747 25.8218 35.3614 25.7418 35.3614C25.6618 35.3481 25.5951 35.3281 25.5418 35.3014C25.4885 35.2747 25.4018 35.2414 25.2818 35.2014C25.1751 35.1481 25.0618 35.1014 24.9418 35.0614C24.8218 35.0081 24.7085 34.9547 24.6018 34.9014C24.5085 34.8481 24.4485 34.8081 24.4218 34.7814C24.1685 34.6481 23.8751 34.4347 23.5418 34.1414C23.2085 33.8481 22.9351 33.4614 22.7218 32.9814C22.6285 32.7814 22.5351 32.6014 22.4418 32.4414C22.3485 32.2681 22.2818 32.0881 22.2418 31.9014C22.2018 31.7147 22.1618 31.5281 22.1218 31.3414C22.0951 31.1414 22.0685 30.9547 22.0418 30.7814C22.0151 30.6347 22.0085 30.4947 22.0218 30.3614C22.0351 30.2281 22.0418 30.0747 22.0418 29.9014V29.1814C22.0285 29.0481 22.0085 28.8747 21.9818 28.6614C21.9685 28.4347 21.9885 28.2681 22.0418 28.1614V25.0214C22.0551 25.0081 22.0885 25.0014 22.1418 25.0014C22.2085 24.9881 22.2818 24.9747 22.3618 24.9614C22.4418 24.9481 22.5218 24.9414 22.6018 24.9414C22.6818 24.9281 22.7485 24.9214 22.8018 24.9214C22.9885 24.9214 23.1551 24.9414 23.3018 24.9814C23.4618 25.0081 23.5951 25.0214 23.7018 25.0214C23.8885 25.0481 24.0618 25.0681 24.2218 25.0814C24.3951 25.0947 24.5685 25.0747 24.7418 25.0214C24.8085 25.0747 24.8418 25.1481 24.8418 25.2414C24.8551 25.3214 24.8618 25.3881 24.8618 25.4414C24.8618 25.6814 24.8551 25.9214 24.8418 26.1614C24.8285 26.3881 24.8085 26.6481 24.7818 26.9414C24.7818 27.1547 24.7751 27.4014 24.7618 27.6814C24.7485 27.9614 24.7418 28.2347 24.7418 28.5014V29.5214C24.7418 29.8147 24.7418 30.0814 24.7418 30.3214C24.7551 30.5614 24.7951 30.8281 24.8618 31.1214C24.8618 31.1614 24.8751 31.2547 24.9018 31.4014C24.9285 31.5347 24.9618 31.6814 25.0018 31.8414C25.0418 32.0014 25.0751 32.1547 25.1018 32.3014C25.1418 32.4481 25.1751 32.5414 25.2018 32.5814C25.2551 32.6347 25.3018 32.7081 25.3418 32.8014C25.3818 32.8814 25.4151 32.9614 25.4418 33.0414C25.5351 33.2414 25.6685 33.4014 25.8418 33.5214C26.0285 33.6414 26.2151 33.7747 26.4018 33.9214C26.5485 34.0414 26.7018 34.1414 26.8618 34.2214C27.0218 34.2881 27.2085 34.3481 27.4218 34.4014C27.4485 34.4147 27.4951 34.4214 27.5618 34.4214C27.6418 34.4214 27.7151 34.4214 27.7818 34.4214L28.3018 34.4614C28.4085 34.4747 28.5218 34.4881 28.6418 34.5014C28.7751 34.5014 28.8951 34.4881 29.0018 34.4614L29.3618 34.3814C29.3751 34.3814 29.4218 34.3681 29.5018 34.3414C29.5818 34.3014 29.6618 34.2614 29.7418 34.2214C29.8351 34.1814 29.9218 34.1481 30.0018 34.1214C30.0951 34.0814 30.1551 34.0481 30.1818 34.0214C30.4085 33.8747 30.5818 33.7347 30.7018 33.6014C30.8218 33.4547 30.9351 33.2681 31.0418 33.0414C31.0685 32.9614 31.1151 32.8347 31.1818 32.6614C31.2485 32.4747 31.3018 32.3481 31.3418 32.2814C31.4085 32.0814 31.4485 31.9014 31.4618 31.7414C31.4885 31.5814 31.5151 31.4147 31.5418 31.2414C31.5418 31.1347 31.5418 30.8747 31.5418 30.4614C31.5418 30.0481 31.5551 29.4481 31.5818 28.6614C31.5951 28.3814 31.6018 28.1014 31.6018 27.8214C31.6018 27.5414 31.6018 27.2614 31.6018 26.9814C31.6151 26.6881 31.6151 26.3881 31.6018 26.0814C31.5885 25.7747 31.5951 25.4947 31.6218 25.2414H31.7418C31.9285 25.2947 32.1218 25.3081 32.3218 25.2814C32.5351 25.2547 32.7618 25.2414 33.0018 25.2414H33.6618C33.7285 25.2414 33.8285 25.2547 33.9618 25.2814C34.1085 25.2947 34.3085 25.2814 34.5618 25.2414ZM36.2163 28.7614C36.2163 28.7214 36.2097 28.6814 36.1963 28.6414C36.183 28.6014 36.183 28.5614 36.1963 28.5214C36.2097 28.5214 36.2297 28.5214 36.2563 28.5214C36.2963 28.5081 36.3297 28.5014 36.3563 28.5014H36.4763C36.543 28.4881 36.6097 28.4881 36.6763 28.5014C36.743 28.5014 36.8097 28.4947 36.8763 28.4814H37.4763C37.503 28.4814 37.5297 28.4947 37.5563 28.5214C37.583 28.5481 37.603 28.5681 37.6163 28.5814L37.6563 28.7614C37.6563 28.8014 37.663 28.8481 37.6763 28.9014C37.703 29.0081 37.7163 29.1214 37.7163 29.2414C37.7297 29.2814 37.7363 29.3214 37.7363 29.3614C37.7363 29.4414 37.743 29.4814 37.7563 29.4814C37.8097 29.4281 37.8497 29.3747 37.8763 29.3214C37.903 29.2547 37.9363 29.2081 37.9763 29.1814C38.0163 29.1414 38.043 29.1147 38.0563 29.1014C38.083 29.0881 38.103 29.0747 38.1163 29.0614C38.143 29.0481 38.1763 29.0347 38.2163 29.0214C38.2563 28.9947 38.3163 28.9547 38.3963 28.9014C38.5163 28.8347 38.623 28.7814 38.7163 28.7414C38.823 28.7014 38.983 28.6281 39.1963 28.5214C39.2363 28.5081 39.303 28.4881 39.3963 28.4614C39.503 28.4347 39.6163 28.4147 39.7363 28.4014C39.8563 28.3747 39.9763 28.3614 40.0963 28.3614C40.2297 28.3481 40.343 28.3414 40.4363 28.3414C40.583 28.3547 40.703 28.3747 40.7963 28.4014C40.8897 28.4147 41.0163 28.4347 41.1763 28.4614C41.243 28.4747 41.3497 28.4881 41.4963 28.5014C41.6563 28.5147 41.763 28.5347 41.8163 28.5614C42.1497 28.7481 42.4163 28.9081 42.6163 29.0414C42.8163 29.1747 42.9897 29.3547 43.1363 29.5814C43.163 29.6081 43.203 29.6414 43.2563 29.6814C43.3097 29.7081 43.3697 29.7547 43.4363 29.8214C43.503 29.8881 43.563 29.9814 43.6163 30.1014C43.683 30.2081 43.7163 30.2747 43.7163 30.3014C43.7697 30.5281 43.8297 30.7147 43.8963 30.8614C43.963 30.9947 44.003 31.1747 44.0163 31.4014C44.0297 31.5081 44.063 31.6281 44.1163 31.7614C44.1697 31.8814 44.1963 32.0081 44.1963 32.1414C44.1963 32.2747 44.203 32.4281 44.2163 32.6014C44.2297 32.7614 44.223 32.9947 44.1963 33.3014C44.1963 33.3947 44.1963 33.4814 44.1963 33.5614C44.2097 33.6414 44.2163 33.7214 44.2163 33.8014V34.7214C44.2163 34.8147 44.2163 34.9014 44.2163 34.9814C44.2163 35.0614 44.2097 35.1414 44.1963 35.2214C44.1963 35.3281 44.1963 35.4214 44.1963 35.5014C44.2097 35.5814 44.2163 35.6747 44.2163 35.7814C44.2163 35.8081 44.2163 35.8347 44.2163 35.8614C44.2163 35.9014 44.203 35.9281 44.1763 35.9414C44.1497 35.9547 44.1097 35.9614 44.0563 35.9614C44.0163 35.9614 43.983 35.9614 43.9563 35.9614C43.8363 35.9614 43.723 35.9614 43.6163 35.9614C43.5097 35.9747 43.3963 35.9747 43.2763 35.9614L42.6763 35.9014C42.623 35.8881 42.5497 35.8881 42.4563 35.9014C42.363 35.9147 42.303 35.8947 42.2763 35.8414C42.263 35.5347 42.2563 35.3214 42.2563 35.2014C42.2697 35.0681 42.2763 34.9481 42.2763 34.8414C42.2763 34.7747 42.2697 34.6947 42.2563 34.6014C42.243 34.4947 42.2297 34.3547 42.2163 34.1814L42.2763 33.1214C42.2763 32.9881 42.2697 32.8881 42.2563 32.8214C42.2563 32.7414 42.2497 32.6814 42.2363 32.6414C42.2363 32.5881 42.2297 32.5281 42.2163 32.4614C42.2163 32.3947 42.2163 32.2881 42.2163 32.1414C42.2163 31.9014 42.1697 31.6614 42.0763 31.4214C41.9963 31.1814 41.8963 30.9414 41.7763 30.7014C41.7097 30.5681 41.623 30.4481 41.5163 30.3414C41.4097 30.2347 41.2697 30.1414 41.0963 30.0614C41.0697 30.0481 41.0363 30.0347 40.9963 30.0214C40.9563 30.0081 40.923 30.0014 40.8963 30.0014L40.4363 29.9614C40.2097 29.9481 39.9763 29.9881 39.7363 30.0814C39.4963 30.1747 39.3497 30.2681 39.2963 30.3614C39.203 30.5214 39.1297 30.6414 39.0763 30.7214C39.023 30.8014 38.9697 30.8814 38.9163 30.9614C38.903 31.0014 38.883 31.0747 38.8563 31.1814C38.8297 31.2747 38.7963 31.3947 38.7563 31.5414C38.7297 31.6747 38.703 31.8214 38.6763 31.9814C38.6497 32.1281 38.6363 32.2614 38.6363 32.3814C38.6363 32.4747 38.6363 32.5681 38.6363 32.6614C38.6363 32.7414 38.6297 32.8214 38.6163 32.9014L38.5763 33.4614L38.4563 34.2214C38.4563 34.3547 38.4563 34.5014 38.4563 34.6614C38.4563 34.8081 38.4497 34.9481 38.4363 35.0814V35.5414C38.3563 35.5947 38.2897 35.6214 38.2363 35.6214C38.0897 35.6481 37.983 35.6747 37.9163 35.7014C37.863 35.7281 37.7563 35.7347 37.5963 35.7214C37.4497 35.7081 37.2563 35.7081 37.0163 35.7214C36.7763 35.7481 36.583 35.7481 36.4363 35.7214C36.2897 35.6947 36.2163 35.6747 36.2163 35.6614C36.2163 35.6614 36.2163 35.6281 36.2163 35.5614C36.2163 35.5081 36.2163 35.4281 36.2163 35.3214C36.2297 35.2014 36.2363 35.0814 36.2363 34.9614C36.2363 34.8281 36.2363 34.7014 36.2363 34.5814C36.2497 34.4614 36.2563 34.3681 36.2563 34.3014C36.2563 34.0614 36.2497 33.8614 36.2363 33.7014C36.223 33.5414 36.2163 33.3414 36.2163 33.1014C36.2163 32.9014 36.2097 32.7414 36.1963 32.6214C36.1963 32.4881 36.1897 32.3214 36.1763 32.1214C36.1763 32.0147 36.183 31.8814 36.1963 31.7214C36.2097 31.5481 36.2163 31.3681 36.2163 31.1814C36.2163 30.9547 36.2097 30.7347 36.1963 30.5214C36.1963 30.3081 36.1963 30.1481 36.1963 30.0414C36.183 29.8147 36.1763 29.6014 36.1763 29.4014C36.1763 29.1881 36.1897 28.9747 36.2163 28.7614ZM47.9749 33.8414C48.0016 34.1081 48.0083 34.3481 47.9949 34.5614C47.9816 34.7747 47.9616 34.9747 47.9349 35.1614C47.9349 35.2414 47.9149 35.3014 47.8749 35.3414C47.7416 35.3681 47.5883 35.3947 47.4149 35.4214C47.2416 35.4347 47.0816 35.4347 46.9349 35.4214C46.8149 35.4081 46.6949 35.4147 46.5749 35.4414C46.4549 35.4547 46.3683 35.4614 46.3149 35.4614C46.3149 35.3814 46.3083 35.3081 46.2949 35.2414C46.2816 35.1747 46.2816 35.0814 46.2949 34.9614C46.3083 34.8547 46.3083 34.7414 46.2949 34.6214C46.2949 34.5014 46.2949 34.3881 46.2949 34.2814V33.3014C46.2816 32.9947 46.2749 32.6814 46.2749 32.3614C46.2749 32.0414 46.2683 31.8281 46.2549 31.7214C46.2416 31.6014 46.2416 31.4814 46.2549 31.3614C46.2816 31.2414 46.2949 31.1214 46.2949 31.0014C46.2816 30.8147 46.2749 30.6281 46.2749 30.4414C46.2883 30.2414 46.2949 30.0481 46.2949 29.8614C46.2949 29.7014 46.2883 29.4947 46.2749 29.2414C46.2616 28.9747 46.2683 28.7614 46.2949 28.6014C46.4016 28.5747 46.5349 28.5614 46.6949 28.5614C46.8549 28.5614 47.0283 28.5547 47.2149 28.5414C47.3616 28.5281 47.5083 28.5214 47.6549 28.5214C47.8016 28.5214 47.9083 28.5214 47.9749 28.5214C48.0016 28.5214 48.0083 28.5614 47.9949 28.6414C47.9949 28.7081 47.9949 28.7547 47.9949 28.7814C47.9816 29.1147 47.9816 29.4081 47.9949 29.6614C48.0083 29.9014 48.0016 30.1547 47.9749 30.4214C47.9883 30.6881 47.9883 30.9214 47.9749 31.1214C47.9749 31.3081 47.9616 31.5347 47.9349 31.8014C47.9349 31.8414 47.9349 31.9481 47.9349 32.1214C47.9349 32.2947 47.9416 32.4947 47.9549 32.7214C47.9683 32.9347 47.9749 33.1481 47.9749 33.3614C47.9749 33.5614 47.9749 33.7214 47.9749 33.8414ZM46.2749 27.2414C46.2616 27.1747 46.2549 27.0747 46.2549 26.9414C46.2683 26.8081 46.2749 26.6681 46.2749 26.5214C46.2749 26.4547 46.2683 26.3947 46.2549 26.3414C46.2549 26.2881 46.2549 26.2347 46.2549 26.1814C46.2549 26.1547 46.2549 26.1347 46.2549 26.1214C46.2683 26.1081 46.2749 26.0881 46.2749 26.0614H47.7149C47.7816 26.0614 47.8216 26.0681 47.8349 26.0814C47.8483 26.0814 47.8549 26.1147 47.8549 26.1814V27.4814C47.7749 27.4947 47.6483 27.5014 47.4749 27.5014C47.3149 27.5014 47.1483 27.5014 46.9749 27.5014C46.8016 27.5014 46.6416 27.5014 46.4949 27.5014C46.3616 27.4881 46.2949 27.4681 46.2949 27.4414C46.2816 27.4014 46.2749 27.3347 46.2749 27.2414ZM53.584 32.9814C53.5973 33.0081 53.6173 33.0547 53.644 33.1214C53.6707 33.1747 53.6973 33.2081 53.724 33.2214C53.7907 33.2214 53.8307 33.1947 53.844 33.1414C53.8707 33.0747 53.9173 33.0014 53.984 32.9214C54.1573 32.5747 54.304 32.2814 54.424 32.0414C54.5573 31.7881 54.7107 31.5014 54.884 31.1814L55.264 30.2614C55.3173 30.1681 55.3907 30.0414 55.484 29.8814C55.5907 29.7081 55.6573 29.5747 55.684 29.4814C55.7107 29.4014 55.7307 29.3414 55.744 29.3014C55.7707 29.2614 55.7973 29.1947 55.824 29.1014C55.824 29.0881 55.8373 29.0481 55.864 28.9814C55.904 28.9147 55.944 28.8481 55.984 28.7814C56.024 28.7147 56.0573 28.6547 56.084 28.6014C56.124 28.5347 56.1507 28.4881 56.164 28.4614C56.4307 28.5281 56.6707 28.6014 56.884 28.6814C57.0973 28.7481 57.3307 28.8481 57.584 28.9814C57.5173 29.1014 57.464 29.2014 57.424 29.2814C57.3973 29.3481 57.3707 29.4214 57.344 29.5014C57.264 29.6614 57.164 29.8281 57.044 30.0014C56.9373 30.1614 56.8707 30.2681 56.844 30.3214L56.484 31.1814C56.3773 31.3814 56.2573 31.5814 56.124 31.7814C56.1107 31.8081 56.0907 31.8481 56.064 31.9014C56.0507 31.9414 56.0307 31.9747 56.004 32.0014C55.9373 32.1081 55.8573 32.2614 55.764 32.4614C55.6707 32.6614 55.564 32.8747 55.444 33.1014C55.3373 33.3147 55.2307 33.5214 55.124 33.7214C55.0307 33.9081 54.9507 34.0414 54.884 34.1214C54.7773 34.3214 54.684 34.4947 54.604 34.6414C54.5373 34.7881 54.4573 34.9614 54.364 35.1614C54.3507 35.2281 54.324 35.2947 54.284 35.3614C54.2573 35.4147 54.2307 35.4747 54.204 35.5414C54.1773 35.6081 54.1507 35.6747 54.124 35.7414C54.0973 35.8081 54.0507 35.8747 53.984 35.9414C53.9573 35.9547 53.8973 35.9681 53.804 35.9814C53.7107 35.9947 53.6107 36.0081 53.504 36.0214C53.3973 36.0347 53.2973 36.0414 53.204 36.0414C53.1107 36.0547 53.044 36.0547 53.004 36.0414C52.9773 36.0281 52.944 35.9947 52.904 35.9414C52.864 35.8881 52.824 35.8281 52.784 35.7614C52.7573 35.7081 52.7307 35.6481 52.704 35.5814C52.6773 35.5281 52.6573 35.4947 52.644 35.4814L52.304 35.0214C52.264 34.9547 52.184 34.8147 52.064 34.6014C51.9573 34.3747 51.8307 34.1681 51.684 33.9814L51.284 33.2214C51.244 33.1281 51.184 33.0081 51.104 32.8614C51.024 32.7014 50.9507 32.5814 50.884 32.5014C50.8307 32.4347 50.7907 32.3614 50.764 32.2814C50.7507 32.2014 50.7107 32.0881 50.644 31.9414C50.5773 31.8747 50.4973 31.7414 50.404 31.5414C50.3107 31.3281 50.1973 31.1547 50.064 31.0214C50.0373 30.9814 49.9907 30.9081 49.924 30.8014C49.8573 30.6947 49.7907 30.6014 49.724 30.5214C49.6573 30.3747 49.584 30.2347 49.504 30.1014C49.424 29.9681 49.3307 29.8081 49.224 29.6214C49.2373 29.6081 49.2507 29.5881 49.264 29.5614C49.2773 29.5481 49.3173 29.5147 49.384 29.4614C49.464 29.3947 49.5507 29.3214 49.644 29.2414C49.7373 29.1614 49.8773 29.0814 50.064 29.0014L50.764 28.4614C50.7907 28.4614 50.8173 28.4681 50.844 28.4814C50.884 28.4947 50.9173 28.5081 50.944 28.5214L51.004 28.5814C51.1773 28.7547 51.2973 28.9347 51.364 29.1214C51.444 29.3081 51.5573 29.4947 51.704 29.6814C51.744 29.7481 51.7907 29.8414 51.844 29.9614C51.9107 30.0814 51.9707 30.2081 52.024 30.3414C52.0907 30.4747 52.1573 30.6014 52.224 30.7214C52.2907 30.8281 52.344 30.9147 52.384 30.9814C52.5973 31.2614 52.804 31.5947 53.004 31.9814C53.2173 32.3681 53.4107 32.7014 53.584 32.9814ZM64.5535 31.7414C64.5535 31.8081 64.5202 31.8747 64.4535 31.9414C64.4135 31.9814 64.3535 32.0081 64.2735 32.0214C64.1935 32.0347 64.1202 32.0414 64.0535 32.0414C63.9602 32.0681 63.8469 32.0814 63.7135 32.0814C63.5802 32.0814 63.4669 32.0814 63.3735 32.0814C63.1869 32.0814 63.0469 32.0881 62.9535 32.1014C62.8602 32.1014 62.7069 32.1147 62.4935 32.1414L61.2935 32.2414V32.4814C61.2935 32.6281 61.3135 32.7747 61.3535 32.9214C61.3935 33.0547 61.4669 33.1947 61.5735 33.3414C61.6402 33.4481 61.7202 33.5481 61.8135 33.6414C61.9069 33.7347 62.0002 33.7947 62.0935 33.8214C62.1735 33.8481 62.2469 33.8747 62.3135 33.9014C62.3802 33.9281 62.4402 33.9547 62.4935 33.9814C62.5602 33.9947 62.6202 33.9947 62.6735 33.9814C63.0335 33.9814 63.2935 33.9414 63.4535 33.8614C63.6269 33.7814 63.8335 33.6814 64.0735 33.5614C64.1269 33.5614 64.1802 33.5347 64.2335 33.4814C64.3002 33.4281 64.3469 33.3947 64.3735 33.3814C64.4402 33.3547 64.5335 33.2881 64.6535 33.1814C64.7869 33.0747 64.8869 33.0081 64.9535 32.9814C64.9935 33.0081 65.0069 33.1014 64.9935 33.2614C64.9802 33.4081 64.9869 33.5481 65.0135 33.6814V33.9014V34.3014C64.9469 34.3814 64.8935 34.4414 64.8535 34.4814C64.8269 34.5081 64.8002 34.5347 64.7735 34.5614C64.7602 34.5881 64.7335 34.6214 64.6935 34.6614C64.6535 34.7014 64.5935 34.7614 64.5135 34.8414C64.2735 35.0814 64.0202 35.2414 63.7535 35.3214C63.6069 35.4014 63.4469 35.4614 63.2735 35.5014C63.1002 35.5281 62.9602 35.5614 62.8535 35.6014C62.7869 35.6147 62.7269 35.6214 62.6735 35.6214C62.6202 35.6347 62.5669 35.6414 62.5135 35.6414H62.3535C62.1002 35.6414 61.8535 35.6347 61.6135 35.6214C61.3735 35.6214 61.1202 35.5547 60.8535 35.4214C60.7602 35.4347 60.6269 35.4081 60.4535 35.3414C60.2935 35.2747 60.1869 35.2081 60.1335 35.1414C59.9869 35.0614 59.8535 34.9614 59.7335 34.8414C59.6269 34.7214 59.5069 34.6147 59.3735 34.5214C59.1869 34.3881 59.0535 34.2481 58.9735 34.1014C58.8935 33.9547 58.8202 33.8014 58.7535 33.6414C58.6869 33.5214 58.6269 33.3881 58.5735 33.2414C58.5202 33.0947 58.4669 32.9481 58.4135 32.8014C58.4135 32.6547 58.4069 32.5147 58.3935 32.3814C58.3935 32.2481 58.3935 32.1147 58.3935 31.9814V31.2414C58.3935 31.0014 58.4402 30.7147 58.5335 30.3814C58.6402 30.0481 58.7669 29.7614 58.9135 29.5214C58.9535 29.4681 59.0002 29.4147 59.0535 29.3614C59.0935 29.3081 59.1402 29.2547 59.1935 29.2014C59.2602 29.1481 59.3269 29.0881 59.3935 29.0214C59.4335 29.0081 59.4735 28.9881 59.5135 28.9614C59.5669 28.9347 59.6402 28.8947 59.7335 28.8414C59.7735 28.8147 59.8202 28.7681 59.8735 28.7014C59.9402 28.6347 60.0269 28.5881 60.1335 28.5614C60.2802 28.5081 60.4202 28.4547 60.5535 28.4014C60.6869 28.3347 60.7869 28.3014 60.8535 28.3014C60.9469 28.3014 61.1135 28.3081 61.3535 28.3214C61.6069 28.3347 61.8469 28.3481 62.0735 28.3614C62.1935 28.3747 62.2935 28.3947 62.3735 28.4214C62.4535 28.4481 62.5135 28.4614 62.5535 28.4614C62.6602 28.4747 62.7469 28.4881 62.8135 28.5014C62.8935 28.5147 62.9735 28.5347 63.0535 28.5614C63.2935 28.6414 63.4669 28.7281 63.5735 28.8214C63.6935 28.9014 63.7935 28.9881 63.8735 29.0814C63.9269 29.1481 63.9735 29.2281 64.0135 29.3214C64.0669 29.4014 64.1202 29.4747 64.1735 29.5414C64.2402 29.6214 64.3002 29.7347 64.3535 29.8814C64.4202 30.0147 64.4669 30.1481 64.4935 30.2814C64.5202 30.3881 64.5402 30.5281 64.5535 30.7014C64.5669 30.8747 64.5735 31.0281 64.5735 31.1614C64.5735 31.2947 64.5669 31.3947 64.5535 31.4614C64.5535 31.5281 64.5535 31.6214 64.5535 31.7414ZM62.8335 30.5814C62.8335 30.5547 62.8335 30.5081 62.8335 30.4414C62.8335 30.3614 62.8202 30.3081 62.7935 30.2814C62.6869 30.1081 62.5335 30.0081 62.3335 29.9814C62.1469 29.9414 61.9802 29.9347 61.8335 29.9614C61.7402 29.9881 61.6802 30.0214 61.6535 30.0614C61.6269 30.1014 61.5869 30.1614 61.5335 30.2414C61.5069 30.2681 61.4869 30.2947 61.4735 30.3214C61.4602 30.3481 61.4402 30.3747 61.4135 30.4014C61.3869 30.4281 61.3669 30.4681 61.3535 30.5214C61.3535 30.5614 61.3469 30.6014 61.3335 30.6414C61.3069 30.7081 61.2935 30.7547 61.2935 30.7814C61.2935 30.8081 61.3069 30.8747 61.3335 30.9814C61.3869 31.0081 61.4869 31.0347 61.6335 31.0614C61.7935 31.0747 61.9535 31.0814 62.1135 31.0814C62.2869 31.0814 62.4469 31.0747 62.5935 31.0614C62.7535 31.0347 62.8602 31.0081 62.9135 30.9814C62.9269 30.9681 62.9135 30.9347 62.8735 30.8814C62.8469 30.8147 62.8335 30.7147 62.8335 30.5814ZM66.3655 33.0214C66.3655 32.9281 66.3655 32.7881 66.3655 32.6014C66.3789 32.4147 66.3789 32.2347 66.3655 32.0614C66.3789 31.9414 66.3855 31.8214 66.3855 31.7014C66.3855 31.5814 66.3855 31.4547 66.3855 31.3214L66.3255 29.7014V28.8014C66.4722 28.8014 66.6255 28.8014 66.7855 28.8014C66.9455 28.7881 67.1255 28.7947 67.3255 28.8214C67.3789 28.8347 67.4322 28.8414 67.4855 28.8414H67.7655C67.8589 28.8681 67.9055 28.8814 67.9055 28.8814C67.9055 28.8681 67.9255 28.8747 67.9655 28.9014C67.9655 28.9681 67.9589 29.0214 67.9455 29.0614C67.9322 29.0881 67.9255 29.1347 67.9255 29.2014V29.8414C67.9789 29.7747 68.0122 29.7214 68.0255 29.6814C68.0522 29.6281 68.0989 29.5681 68.1655 29.5014L68.2855 29.4614C68.4589 29.2881 68.6722 29.1747 68.9255 29.1214C69.1789 29.0681 69.4322 29.0547 69.6855 29.0814C69.7389 29.0814 69.8255 29.1081 69.9455 29.1614C70.0655 29.2014 70.1855 29.2547 70.3055 29.3214C70.3989 29.3347 70.4789 29.3614 70.5455 29.4014L70.6055 29.4614C70.7389 29.5814 70.8655 29.6881 70.9855 29.7814C71.1055 29.8614 71.1922 29.9681 71.2455 30.1014C71.3789 30.2881 71.4855 30.4881 71.5655 30.7014C71.6455 30.9147 71.7189 31.1481 71.7855 31.4014C71.7855 31.4681 71.7789 31.5281 71.7655 31.5814C71.7522 31.6347 71.7122 31.6614 71.6455 31.6614C71.4455 31.7281 71.2589 31.7614 71.0855 31.7614C70.9255 31.7481 70.7055 31.7547 70.4255 31.7814H70.2055C70.1789 31.7681 70.1589 31.7481 70.1455 31.7214C70.1455 31.6947 70.1455 31.6747 70.1455 31.6614C70.1322 31.5814 70.1122 31.5147 70.0855 31.4614C70.0722 31.3947 70.0655 31.3414 70.0655 31.3014C70.0655 31.2747 70.0589 31.2414 70.0455 31.2014C70.0322 31.1614 70.0189 31.1281 70.0055 31.1014C69.9789 31.0614 69.9589 31.0281 69.9455 31.0014C69.6922 30.7481 69.4455 30.6214 69.2055 30.6214C69.1789 30.6214 69.1389 30.6214 69.0855 30.6214C69.0455 30.6214 69.0055 30.6347 68.9655 30.6614C68.8989 30.6881 68.7989 30.7347 68.6655 30.8014C68.5455 30.8547 68.4655 30.9014 68.4255 30.9414C68.3589 31.0081 68.2855 31.0814 68.2055 31.1614C68.1389 31.2281 68.0855 31.3081 68.0455 31.4014C68.0322 31.4547 68.0189 31.5481 68.0055 31.6814C68.0055 31.8014 68.0055 31.8747 68.0055 31.9014C67.9789 32.0214 67.9522 32.1814 67.9255 32.3814C67.8989 32.5814 67.8855 32.7547 67.8855 32.9014C67.8855 32.9947 67.8722 33.1147 67.8455 33.2614C67.8322 33.4081 67.8255 33.5414 67.8255 33.6614C67.8255 33.7547 67.8189 33.8414 67.8055 33.9214C67.8055 34.0014 67.8055 34.0814 67.8055 34.1614V34.9214C67.8055 35.0014 67.7989 35.0881 67.7855 35.1814C67.7855 35.2747 67.7855 35.3681 67.7855 35.4614V35.9014C67.1189 36.0481 66.6589 36.0481 66.4055 35.9014C66.3789 35.8081 66.3589 35.6947 66.3455 35.5614C66.3322 35.4147 66.3322 35.3281 66.3455 35.3014C66.3722 35.0614 66.3789 34.8214 66.3655 34.5814C66.3522 34.3414 66.3455 34.0947 66.3455 33.8414C66.3322 33.7081 66.3322 33.5681 66.3455 33.4214C66.3589 33.2747 66.3655 33.1414 66.3655 33.0214ZM77.168 34.5614C77.3014 34.4414 77.4014 34.3147 77.468 34.1814C77.5347 34.0347 77.568 33.8614 77.568 33.6614C77.568 33.5414 77.5347 33.4214 77.468 33.3014C77.4014 33.1814 77.3014 33.0881 77.168 33.0214C76.848 32.9014 76.5214 32.7814 76.188 32.6614C75.8547 32.5414 75.4947 32.4481 75.108 32.3814C74.9214 32.3147 74.7214 32.2481 74.508 32.1814C74.308 32.1147 74.0747 32.0481 73.808 31.9814C73.2747 31.7281 72.9414 31.3014 72.808 30.7014C72.808 30.4481 72.808 30.2014 72.808 29.9614C72.808 29.7214 72.868 29.4747 72.988 29.2214C73.068 29.0347 73.1347 28.9014 73.188 28.8214C73.2547 28.7281 73.3147 28.6614 73.368 28.6214C73.4347 28.5681 73.4947 28.5281 73.548 28.5014C73.6147 28.4614 73.688 28.4081 73.768 28.3414C74.0747 28.2214 74.3347 28.1347 74.548 28.0814C74.7747 28.0147 75.048 27.9481 75.368 27.8814C75.5014 27.8147 75.628 27.7747 75.748 27.7614C75.8814 27.7481 76.008 27.7414 76.128 27.7414H77.208C77.408 27.7414 77.5947 27.7414 77.768 27.7414C77.9414 27.7281 78.1214 27.7281 78.308 27.7414C78.6014 27.7547 78.8747 27.7814 79.128 27.8214C79.3814 27.8614 79.6747 27.9147 80.008 27.9814C80.3147 28.0214 80.5347 28.0681 80.668 28.1214C80.6414 28.1881 80.6147 28.2947 80.588 28.4414C80.5747 28.5881 80.5614 28.7347 80.548 28.8814C80.548 28.9081 80.5414 28.9347 80.528 28.9614C80.528 28.9747 80.528 28.9947 80.528 29.0214C80.528 29.0881 80.508 29.1281 80.4681 29.1414C80.4414 29.1547 80.408 29.1547 80.368 29.1414C80.3414 29.1281 80.308 29.1147 80.268 29.1014C80.0414 29.0747 79.808 29.0614 79.568 29.0614C79.328 29.0614 79.088 29.0681 78.848 29.0814C78.608 29.0947 78.368 29.1214 78.128 29.1614C77.888 29.2014 77.6547 29.2347 77.428 29.2614C77.3214 29.2881 77.2214 29.3147 77.128 29.3414C77.0347 29.3547 76.9414 29.3747 76.848 29.4014C76.7414 29.4281 76.6414 29.4614 76.548 29.5014C76.468 29.5414 76.3747 29.5947 76.268 29.6614C76.1347 29.8214 76.0414 29.9681 75.988 30.1014C75.9214 30.2614 75.888 30.4214 75.888 30.5814C75.8614 30.6481 75.8614 30.7547 75.888 30.9014C75.9147 31.0347 75.968 31.1481 76.048 31.2414C76.2214 31.4281 76.3814 31.5481 76.528 31.6014C76.7814 31.6681 77.0214 31.7281 77.248 31.7814C77.488 31.8347 77.7014 31.8881 77.888 31.9414C77.9547 31.9414 78.028 31.9547 78.108 31.9814C78.188 32.0081 78.2614 32.0214 78.328 32.0214C78.5947 32.0481 78.8347 32.0947 79.048 32.1614C79.2614 32.2147 79.4947 32.2881 79.748 32.3814C79.9347 32.4481 80.1214 32.5214 80.308 32.6014C80.508 32.6681 80.7014 32.7614 80.888 32.8814C81.0347 33.0814 81.1414 33.2547 81.2081 33.4014C81.288 33.5481 81.3614 33.7214 81.428 33.9214V34.4414C81.428 34.5747 81.4014 34.7014 81.348 34.8214C81.2947 34.9414 81.2347 35.0347 81.168 35.1014C81.0347 35.4481 80.7747 35.7481 80.388 36.0014C80.1347 36.1881 79.868 36.3414 79.588 36.4614C79.3214 36.5947 79.028 36.6881 78.708 36.7414C78.2547 36.8881 77.7947 36.9681 77.328 36.9814C76.8747 37.0081 76.3947 36.9881 75.888 36.9214L74.788 36.8214C74.668 36.8081 74.528 36.7881 74.368 36.7614C74.208 36.7347 74.048 36.6947 73.888 36.6414C73.6614 36.5747 73.4947 36.5347 73.388 36.5214C73.2947 36.5214 73.2414 36.5081 73.228 36.4814C73.2147 36.4547 73.2014 36.4281 73.188 36.4014C73.1747 36.3881 73.168 36.3747 73.168 36.3614C73.1014 36.2147 73.0614 36.0747 73.048 35.9414C73.0347 35.8214 72.9947 35.6681 72.928 35.4814C72.9014 35.4147 72.8814 35.3547 72.868 35.3014C72.8547 35.2481 72.8414 35.1947 72.828 35.1414V35.0814C72.828 35.0547 72.8214 35.0347 72.808 35.0214C72.808 35.0081 72.8147 34.9881 72.828 34.9614C72.8947 34.9614 72.948 34.9681 72.988 34.9814C73.0414 34.9947 73.1014 35.0014 73.168 35.0014C73.328 35.0414 73.508 35.0814 73.708 35.1214C73.9214 35.1614 74.088 35.1814 74.208 35.1814C74.328 35.1814 74.4614 35.1881 74.608 35.2014C74.7547 35.2014 74.9214 35.2014 75.108 35.2014C75.268 35.2147 75.4347 35.2214 75.608 35.2214C75.7814 35.2214 75.9547 35.1881 76.128 35.1214C76.168 35.0814 76.2347 35.0414 76.328 35.0014C76.4214 34.9614 76.5214 34.9214 76.628 34.8814C76.7347 34.8281 76.8347 34.7814 76.928 34.7414C77.0347 34.6881 77.1147 34.6281 77.168 34.5614ZM87.0118 34.5614C87.1451 34.4414 87.2451 34.3147 87.3118 34.1814C87.3785 34.0347 87.4118 33.8614 87.4118 33.6614C87.4118 33.5414 87.3785 33.4214 87.3118 33.3014C87.2451 33.1814 87.1451 33.0881 87.0118 33.0214C86.6918 32.9014 86.3651 32.7814 86.0318 32.6614C85.6985 32.5414 85.3385 32.4481 84.9518 32.3814C84.7651 32.3147 84.5651 32.2481 84.3518 32.1814C84.1518 32.1147 83.9185 32.0481 83.6518 31.9814C83.1185 31.7281 82.7851 31.3014 82.6518 30.7014C82.6518 30.4481 82.6518 30.2014 82.6518 29.9614C82.6518 29.7214 82.7118 29.4747 82.8318 29.2214C82.9118 29.0347 82.9785 28.9014 83.0318 28.8214C83.0985 28.7281 83.1585 28.6614 83.2118 28.6214C83.2785 28.5681 83.3385 28.5281 83.3918 28.5014C83.4585 28.4614 83.5318 28.4081 83.6118 28.3414C83.9185 28.2214 84.1785 28.1347 84.3918 28.0814C84.6185 28.0147 84.8918 27.9481 85.2118 27.8814C85.3451 27.8147 85.4718 27.7747 85.5918 27.7614C85.7251 27.7481 85.8518 27.7414 85.9718 27.7414H87.0518C87.2518 27.7414 87.4385 27.7414 87.6118 27.7414C87.7851 27.7281 87.9651 27.7281 88.1518 27.7414C88.4451 27.7547 88.7185 27.7814 88.9718 27.8214C89.2251 27.8614 89.5185 27.9147 89.8518 27.9814C90.1585 28.0214 90.3785 28.0681 90.5118 28.1214C90.4851 28.1881 90.4585 28.2947 90.4318 28.4414C90.4185 28.5881 90.4051 28.7347 90.3918 28.8814C90.3918 28.9081 90.3851 28.9347 90.3718 28.9614C90.3718 28.9747 90.3718 28.9947 90.3718 29.0214C90.3718 29.0881 90.3518 29.1281 90.3118 29.1414C90.2851 29.1547 90.2518 29.1547 90.2118 29.1414C90.1851 29.1281 90.1518 29.1147 90.1118 29.1014C89.8851 29.0747 89.6518 29.0614 89.4118 29.0614C89.1718 29.0614 88.9318 29.0681 88.6918 29.0814C88.4518 29.0947 88.2118 29.1214 87.9718 29.1614C87.7318 29.2014 87.4985 29.2347 87.2718 29.2614C87.1651 29.2881 87.0651 29.3147 86.9718 29.3414C86.8785 29.3547 86.7851 29.3747 86.6918 29.4014C86.5851 29.4281 86.4851 29.4614 86.3918 29.5014C86.3118 29.5414 86.2185 29.5947 86.1118 29.6614C85.9785 29.8214 85.8851 29.9681 85.8318 30.1014C85.7651 30.2614 85.7318 30.4214 85.7318 30.5814C85.7051 30.6481 85.7051 30.7547 85.7318 30.9014C85.7585 31.0347 85.8118 31.1481 85.8918 31.2414C86.0651 31.4281 86.2251 31.5481 86.3718 31.6014C86.6251 31.6681 86.8651 31.7281 87.0918 31.7814C87.3318 31.8347 87.5451 31.8881 87.7318 31.9414C87.7985 31.9414 87.8718 31.9547 87.9518 31.9814C88.0318 32.0081 88.1051 32.0214 88.1718 32.0214C88.4385 32.0481 88.6785 32.0947 88.8918 32.1614C89.1051 32.2147 89.3385 32.2881 89.5918 32.3814C89.7785 32.4481 89.9651 32.5214 90.1518 32.6014C90.3518 32.6681 90.5451 32.7614 90.7318 32.8814C90.8785 33.0814 90.9851 33.2547 91.0518 33.4014C91.1318 33.5481 91.2051 33.7214 91.2718 33.9214V34.4414C91.2718 34.5747 91.2451 34.7014 91.1918 34.8214C91.1385 34.9414 91.0785 35.0347 91.0118 35.1014C90.8785 35.4481 90.6185 35.7481 90.2318 36.0014C89.9785 36.1881 89.7118 36.3414 89.4318 36.4614C89.1651 36.5947 88.8718 36.6881 88.5518 36.7414C88.0985 36.8881 87.6385 36.9681 87.1718 36.9814C86.7185 37.0081 86.2385 36.9881 85.7318 36.9214L84.6318 36.8214C84.5118 36.8081 84.3718 36.7881 84.2118 36.7614C84.0518 36.7347 83.8918 36.6947 83.7318 36.6414C83.5051 36.5747 83.3385 36.5347 83.2318 36.5214C83.1385 36.5214 83.0851 36.5081 83.0718 36.4814C83.0585 36.4547 83.0451 36.4281 83.0318 36.4014C83.0185 36.3881 83.0118 36.3747 83.0118 36.3614C82.9451 36.2147 82.9051 36.0747 82.8918 35.9414C82.8785 35.8214 82.8385 35.6681 82.7718 35.4814C82.7451 35.4147 82.7251 35.3547 82.7118 35.3014C82.6985 35.2481 82.6851 35.1947 82.6718 35.1414V35.0814C82.6718 35.0547 82.6651 35.0347 82.6518 35.0214C82.6518 35.0081 82.6585 34.9881 82.6718 34.9614C82.7385 34.9614 82.7918 34.9681 82.8318 34.9814C82.8851 34.9947 82.9451 35.0014 83.0118 35.0014C83.1718 35.0414 83.3518 35.0814 83.5518 35.1214C83.7651 35.1614 83.9318 35.1814 84.0518 35.1814C84.1718 35.1814 84.3051 35.1881 84.4518 35.2014C84.5985 35.2014 84.7651 35.2014 84.9518 35.2014C85.1118 35.2147 85.2785 35.2214 85.4518 35.2214C85.6251 35.2214 85.7985 35.1881 85.9718 35.1214C86.0118 35.0814 86.0785 35.0414 86.1718 35.0014C86.2651 34.9614 86.3651 34.9214 86.4718 34.8814C86.5785 34.8281 86.6785 34.7814 86.7718 34.7414C86.8785 34.6881 86.9585 34.6281 87.0118 34.5614ZM94.6155 33.8414C94.6422 34.1081 94.6489 34.3481 94.6355 34.5614C94.6222 34.7747 94.6022 34.9747 94.5755 35.1614C94.5755 35.2414 94.5555 35.3014 94.5155 35.3414C94.3822 35.3681 94.2289 35.3947 94.0555 35.4214C93.8822 35.4347 93.7222 35.4347 93.5755 35.4214C93.4555 35.4081 93.3355 35.4147 93.2155 35.4414C93.0955 35.4547 93.0089 35.4614 92.9555 35.4614C92.9555 35.3814 92.9489 35.3081 92.9355 35.2414C92.9222 35.1747 92.9222 35.0814 92.9355 34.9614C92.9489 34.8547 92.9489 34.7414 92.9355 34.6214C92.9355 34.5014 92.9355 34.3881 92.9355 34.2814V33.3014C92.9222 32.9947 92.9155 32.6814 92.9155 32.3614C92.9155 32.0414 92.9089 31.8281 92.8955 31.7214C92.8822 31.6014 92.8822 31.4814 92.8955 31.3614C92.9222 31.2414 92.9355 31.1214 92.9355 31.0014C92.9222 30.8147 92.9155 30.6281 92.9155 30.4414C92.9289 30.2414 92.9355 30.0481 92.9355 29.8614C92.9355 29.7014 92.9289 29.4947 92.9155 29.2414C92.9022 28.9747 92.9089 28.7614 92.9355 28.6014C93.0422 28.5747 93.1755 28.5614 93.3355 28.5614C93.4955 28.5614 93.6689 28.5547 93.8555 28.5414C94.0022 28.5281 94.1489 28.5214 94.2955 28.5214C94.4422 28.5214 94.5489 28.5214 94.6155 28.5214C94.6422 28.5214 94.6489 28.5614 94.6355 28.6414C94.6355 28.7081 94.6355 28.7547 94.6355 28.7814C94.6222 29.1147 94.6222 29.4081 94.6355 29.6614C94.6489 29.9014 94.6422 30.1547 94.6155 30.4214C94.6289 30.6881 94.6289 30.9214 94.6155 31.1214C94.6155 31.3081 94.6022 31.5347 94.5755 31.8014C94.5755 31.8414 94.5755 31.9481 94.5755 32.1214C94.5755 32.2947 94.5822 32.4947 94.5955 32.7214C94.6089 32.9347 94.6155 33.1481 94.6155 33.3614C94.6155 33.5614 94.6155 33.7214 94.6155 33.8414ZM92.9155 27.2414C92.9022 27.1747 92.8955 27.0747 92.8955 26.9414C92.9089 26.8081 92.9155 26.6681 92.9155 26.5214C92.9155 26.4547 92.9089 26.3947 92.8955 26.3414C92.8955 26.2881 92.8955 26.2347 92.8955 26.1814C92.8955 26.1547 92.8955 26.1347 92.8955 26.1214C92.9089 26.1081 92.9155 26.0881 92.9155 26.0614H94.3555C94.4222 26.0614 94.4622 26.0681 94.4755 26.0814C94.4889 26.0814 94.4955 26.1147 94.4955 26.1814V27.4814C94.4155 27.4947 94.2889 27.5014 94.1155 27.5014C93.9555 27.5014 93.7889 27.5014 93.6155 27.5014C93.4422 27.5014 93.2822 27.5014 93.1355 27.5014C93.0022 27.4881 92.9355 27.4681 92.9355 27.4414C92.9222 27.4014 92.9155 27.3347 92.9155 27.2414ZM100.465 35.0814C100.465 35.2281 100.458 35.3814 100.445 35.5414C100.445 35.7014 100.451 35.8547 100.465 36.0014C100.465 36.0814 100.465 36.1947 100.465 36.3414C100.465 36.5014 100.458 36.6214 100.445 36.7014C100.458 36.7547 100.445 36.8014 100.405 36.8414C100.365 36.8947 100.331 36.9347 100.305 36.9614H99.7846C99.7179 36.9614 99.6379 36.9547 99.5446 36.9414C99.4646 36.9414 99.3913 36.9414 99.3246 36.9414C99.2713 36.9681 99.1979 36.9814 99.1046 36.9814C99.0113 36.9814 98.9113 36.9814 98.8046 36.9814C98.7113 36.9814 98.6179 36.9747 98.5246 36.9614C98.4446 36.9614 98.3979 36.9614 98.3846 36.9614C98.3179 36.8947 98.2779 36.8481 98.2646 36.8214C98.2646 36.8081 98.2646 36.7681 98.2646 36.7014V34.7814L98.2246 33.6014L98.2646 32.2614L98.2446 31.1014L98.1646 30.1414C98.0046 30.1414 97.8113 30.1481 97.5846 30.1614C97.3579 30.1747 97.1846 30.1681 97.0646 30.1414C96.8379 30.1014 96.6579 30.0947 96.5246 30.1214C96.4046 30.1347 96.2513 30.1414 96.0646 30.1414V28.8614H96.1846C96.2513 28.8614 96.3046 28.8614 96.3446 28.8614C96.3979 28.8481 96.4379 28.8481 96.4646 28.8614C96.5313 28.9147 96.6246 28.9347 96.7446 28.9214C96.8779 28.8947 96.9379 28.8681 96.9246 28.8414C97.0713 28.8281 97.1579 28.8214 97.1846 28.8214C97.2246 28.8214 97.3046 28.8214 97.4246 28.8214C97.5313 28.8214 97.6846 28.8281 97.8846 28.8414C98.0979 28.8414 98.2379 28.8347 98.3046 28.8214C98.3046 28.8214 98.3046 28.7814 98.3046 28.7014C98.3046 28.6214 98.3046 28.5281 98.3046 28.4214C98.3046 28.3147 98.3046 28.2014 98.3046 28.0814C98.3046 27.9614 98.3046 27.8681 98.3046 27.8014C98.3313 27.5481 98.3446 27.3214 98.3446 27.1214C98.3579 26.9081 98.3713 26.6681 98.3846 26.4014C98.3979 26.2147 98.4046 26.0347 98.4046 25.8614C98.4046 25.6881 98.4046 25.5081 98.4046 25.3214C98.4046 25.1347 98.4113 24.9081 98.4246 24.6414C98.4513 24.3614 98.4579 24.1147 98.4446 23.9014C98.4446 23.8347 98.4313 23.7947 98.4046 23.7814C98.3913 23.7547 98.3846 23.7081 98.3846 23.6414C98.3846 23.5747 98.3913 23.5281 98.4046 23.5014C98.4179 23.4614 98.4579 23.4414 98.5246 23.4414C98.6446 23.4414 98.7713 23.4481 98.9046 23.4614C99.0379 23.4747 99.1646 23.4814 99.2846 23.4814C99.4846 23.4814 99.6646 23.4814 99.8246 23.4814C99.9979 23.4814 100.138 23.4881 100.245 23.5014C100.445 23.5281 100.598 23.5547 100.705 23.5814C100.705 23.5814 100.705 23.6147 100.705 23.6814C100.705 23.7347 100.705 23.8081 100.705 23.9014C100.705 23.9814 100.698 24.0681 100.685 24.1614C100.685 24.2547 100.685 24.3414 100.685 24.4214C100.671 24.7547 100.665 25.0481 100.665 25.3014C100.665 25.5414 100.671 25.8281 100.685 26.1614C100.685 26.3081 100.678 26.4614 100.665 26.6214C100.665 26.7814 100.671 26.9347 100.685 27.0814C100.685 27.1214 100.678 27.2081 100.665 27.3414C100.665 27.4747 100.658 27.6214 100.645 27.7814C100.631 27.9281 100.618 28.0681 100.605 28.2014C100.591 28.3347 100.585 28.4214 100.585 28.4614C100.585 28.5281 100.598 28.5881 100.625 28.6414C100.651 28.6947 100.678 28.7214 100.705 28.7214C100.771 28.7214 100.858 28.7347 100.965 28.7614C101.071 28.7747 101.158 28.7814 101.225 28.7814C101.291 28.7814 101.358 28.7947 101.425 28.8214C101.505 28.8347 101.611 28.8414 101.745 28.8414C101.865 28.8414 101.985 28.8481 102.105 28.8614C102.238 28.8614 102.378 28.8614 102.525 28.8614C102.551 28.8614 102.578 28.8681 102.605 28.8814C102.631 28.8814 102.658 28.8814 102.685 28.8814H102.765C102.831 29.0814 102.865 29.3081 102.865 29.5614C102.865 29.8147 102.831 30.0081 102.765 30.1414H102.645C102.378 30.1681 102.118 30.1947 101.865 30.2214C101.611 30.2347 101.351 30.2414 101.085 30.2414C101.018 30.2414 100.938 30.2481 100.845 30.2614C100.751 30.2614 100.671 30.2614 100.605 30.2614C100.605 30.2881 100.598 30.3214 100.585 30.3614C100.585 30.3881 100.585 30.4147 100.585 30.4414V30.5214V30.7014C100.585 30.8214 100.585 30.9347 100.585 31.0414C100.598 31.1347 100.598 31.2347 100.585 31.3414L100.625 32.4014L100.545 33.3014C100.545 33.3681 100.538 33.4881 100.525 33.6614C100.525 33.8214 100.518 34.0014 100.505 34.2014C100.505 34.3881 100.498 34.5681 100.485 34.7414C100.471 34.9014 100.465 35.0147 100.465 35.0814ZM107.002 34.3214C106.949 34.2547 106.896 34.1747 106.842 34.0814C106.789 33.9747 106.729 33.8947 106.662 33.8414C106.569 33.7881 106.462 33.6814 106.342 33.5214C106.222 33.3481 106.096 33.1614 105.962 32.9614C105.829 32.7614 105.696 32.5681 105.562 32.3814C105.429 32.1814 105.316 32.0214 105.222 31.9014C105.169 31.7814 105.089 31.6681 104.982 31.5614C104.889 31.4414 104.809 31.3214 104.742 31.2014C104.676 31.1347 104.616 31.0747 104.562 31.0214C104.509 30.9547 104.449 30.8947 104.382 30.8414C104.382 30.7747 104.356 30.6947 104.302 30.6014C104.262 30.4947 104.209 30.4081 104.142 30.3414C104.076 30.2881 103.996 30.2081 103.902 30.1014C103.809 29.9814 103.729 29.8614 103.662 29.7414V29.5014C103.782 29.3814 103.922 29.2814 104.082 29.2014C104.242 29.1214 104.389 29.0214 104.522 28.9014L104.742 28.6614C104.809 28.5947 104.869 28.5547 104.922 28.5414C104.989 28.5281 105.056 28.4947 105.122 28.4414L105.222 28.5414C105.329 28.6481 105.396 28.7414 105.422 28.8214C105.462 28.8881 105.522 28.9614 105.602 29.0414C105.656 29.0414 105.716 29.1147 105.782 29.2614C105.862 29.3947 105.916 29.4747 105.942 29.5014C106.009 29.5681 106.049 29.6347 106.062 29.7014C106.089 29.7681 106.136 29.8614 106.202 29.9814C106.349 30.1681 106.482 30.3547 106.602 30.5414C106.722 30.7147 106.856 30.8881 107.002 31.0614C107.069 31.1281 107.109 31.1947 107.122 31.2614C107.149 31.3147 107.196 31.3747 107.262 31.4414C107.409 31.5347 107.516 31.6481 107.582 31.7814C107.649 31.9014 107.742 32.0147 107.862 32.1214L108.222 32.5014C108.329 32.3414 108.429 32.1947 108.522 32.0614C108.616 31.9147 108.716 31.7814 108.822 31.6614C108.942 31.5547 109.042 31.4147 109.122 31.2414C109.202 31.0681 109.296 30.8947 109.402 30.7214C109.482 30.5481 109.576 30.3814 109.682 30.2214C109.802 30.0481 109.909 29.8547 110.002 29.6414C110.069 29.5081 110.129 29.4081 110.182 29.3414C110.236 29.2747 110.262 29.2081 110.262 29.1414C110.382 29.0214 110.476 28.9081 110.542 28.8014C110.609 28.6947 110.676 28.6081 110.742 28.5414H110.982C111.022 28.5547 111.102 28.6081 111.222 28.7014C111.342 28.7814 111.462 28.8814 111.582 29.0014C111.702 29.1081 111.809 29.2081 111.902 29.3014C112.009 29.3947 112.062 29.4614 112.062 29.5014C112.049 29.5947 112.009 29.6881 111.942 29.7814C111.889 29.8614 111.822 29.9481 111.742 30.0414C111.676 30.1347 111.602 30.2281 111.522 30.3214C111.442 30.4147 111.382 30.5081 111.342 30.6014C111.342 30.6547 111.316 30.7081 111.262 30.7614C111.236 30.7881 111.216 30.8147 111.202 30.8414C111.149 30.9481 111.076 31.0614 110.982 31.1814C110.889 31.3014 110.809 31.4147 110.742 31.5214C110.676 31.6547 110.616 31.7747 110.562 31.8814C110.509 31.9881 110.449 32.0681 110.382 32.1214C110.316 32.2547 110.229 32.4014 110.122 32.5614C110.016 32.7214 109.942 32.8614 109.902 32.9814C109.836 33.1681 109.769 33.2881 109.702 33.3414C109.649 33.3947 109.589 33.4747 109.522 33.5814L109.482 33.6614C109.456 33.7014 109.429 33.7214 109.402 33.7214C109.362 33.7881 109.336 33.8481 109.322 33.9014C109.309 33.9414 109.269 33.9947 109.202 34.0614C109.136 34.1947 109.069 34.3147 109.002 34.4214C108.949 34.5281 108.889 34.6481 108.822 34.7814C108.702 34.9281 108.582 35.1281 108.462 35.3814C108.342 35.5014 108.229 35.6214 108.122 35.7414C108.016 35.8747 107.929 36.0347 107.862 36.2214C107.676 36.5147 107.482 36.8014 107.282 37.0814C107.082 37.3614 106.956 37.5481 106.902 37.6414C106.822 37.8681 106.702 38.0881 106.542 38.3014C106.382 38.5147 106.229 38.6947 106.082 38.8414C106.016 38.9747 105.936 39.1014 105.842 39.2214C105.749 39.3547 105.669 39.5147 105.602 39.7014C105.536 39.8081 105.449 39.9214 105.342 40.0414C105.249 40.1747 105.176 40.3014 105.122 40.4214C105.056 40.4747 105.009 40.5014 104.982 40.5014C104.969 40.5014 104.929 40.4747 104.862 40.4214C104.742 40.3547 104.622 40.2881 104.502 40.2214C104.382 40.1547 104.262 40.0547 104.142 39.9214C104.076 39.8681 103.996 39.8014 103.902 39.7214C103.822 39.6547 103.782 39.6081 103.782 39.5814C103.769 39.5681 103.789 39.5214 103.842 39.4414C103.896 39.3614 103.962 39.2681 104.042 39.1614C104.122 39.0681 104.202 38.9681 104.282 38.8614C104.376 38.7547 104.456 38.6747 104.522 38.6214V38.5014C104.629 38.3681 104.742 38.2214 104.862 38.0614C104.982 37.9147 105.102 37.7747 105.222 37.6414C105.342 37.4147 105.469 37.2014 105.602 37.0014C105.736 36.8147 105.896 36.5947 106.082 36.3414C106.082 36.2747 106.102 36.1947 106.142 36.1014C106.196 36.0081 106.256 35.9281 106.322 35.8614C106.429 35.6481 106.549 35.4481 106.682 35.2614C106.829 35.0747 106.936 34.8681 107.002 34.6414L107.062 34.5814C107.116 34.5281 107.142 34.4814 107.142 34.4414L107.002 34.3214Z" fill="#84BBAB"/>
<ellipse cx="45.6046" cy="21.9767" rx="2.88636" ry="2.44186" fill="#00B37E"/>
</svg>
