<svg width="66" height="76" viewBox="0 0 66 76" fill="none" xmlns="http://www.w3.org/2000/svg">
<ellipse cx="33" cy="28.5" rx="33" ry="28.5" fill="#00B37E"/>
<path d="M14.512 30.092C14.536 29.948 14.536 29.804 14.512 29.66C14.488 29.516 14.5 29.36 14.548 29.192C14.572 29.144 14.584 29.06 14.584 28.94C14.608 28.82 14.608 28.724 14.584 28.652L14.476 27.536C14.452 27.344 14.452 27.152 14.476 26.96C14.5 26.744 14.512 26.528 14.512 26.312C14.488 26.216 14.476 26.132 14.476 26.06C14.5 25.964 14.512 25.868 14.512 25.772C14.488 25.508 14.5 25.232 14.548 24.944C14.62 24.656 14.632 24.38 14.584 24.116C14.584 24.092 14.584 24.032 14.584 23.936C14.584 23.84 14.584 23.744 14.584 23.648C14.584 23.528 14.584 23.42 14.584 23.324C14.608 23.228 14.62 23.168 14.62 23.144C14.644 22.688 14.644 22.208 14.62 21.704C14.62 21.152 14.62 20.66 14.62 20.228C14.62 19.772 14.644 19.388 14.692 19.076C14.716 18.956 14.728 18.812 14.728 18.644C14.728 18.452 14.728 18.26 14.728 18.068C14.704 17.804 14.68 17.516 14.656 17.204C14.656 16.892 14.656 16.58 14.656 16.268C14.656 15.716 14.644 15.236 14.62 14.828C14.62 14.396 14.608 13.904 14.584 13.352C14.584 13.16 14.572 12.98 14.548 12.812C14.524 12.62 14.524 12.428 14.548 12.236C14.548 12.188 14.548 12.068 14.548 11.876C14.548 11.684 14.56 11.564 14.584 11.516C14.584 11.492 14.596 11.468 14.62 11.444C14.692 11.372 14.752 11.336 14.8 11.336H17.392C17.728 11.336 18.064 11.336 18.4 11.336C18.76 11.336 19.084 11.348 19.372 11.372C19.636 11.396 19.912 11.456 20.2 11.552C20.512 11.648 20.764 11.732 20.956 11.804C21.58 12.02 22.012 12.188 22.252 12.308C22.516 12.428 22.768 12.584 23.008 12.776C23.224 12.944 23.452 13.1 23.692 13.244C23.932 13.388 24.172 13.556 24.412 13.748C24.652 13.916 24.88 14.132 25.096 14.396C25.336 14.636 25.552 14.948 25.744 15.332C25.888 15.62 26.056 15.92 26.248 16.232C26.464 16.544 26.56 16.868 26.536 17.204C26.656 17.564 26.716 17.876 26.716 18.14C26.74 18.404 26.812 18.644 26.932 18.86C27.052 19.388 27.112 19.94 27.112 20.516C27.112 21.092 27.052 21.62 26.932 22.1C26.956 22.436 26.92 22.772 26.824 23.108C26.752 23.444 26.704 23.78 26.68 24.116C26.656 24.404 26.62 24.632 26.572 24.8C26.548 24.968 26.5 25.112 26.428 25.232C26.38 25.352 26.32 25.472 26.248 25.592C26.2 25.712 26.14 25.868 26.068 26.06C26.044 26.132 25.984 26.252 25.888 26.42C25.792 26.564 25.684 26.72 25.564 26.888C25.468 27.056 25.36 27.224 25.24 27.392C25.144 27.536 25.084 27.644 25.06 27.716C24.916 28.124 24.724 28.424 24.484 28.616C24.268 28.784 23.98 29.06 23.62 29.444C23.548 29.516 23.428 29.636 23.26 29.804C23.116 29.948 22.948 30.104 22.756 30.272C22.588 30.44 22.42 30.596 22.252 30.74C22.084 30.86 21.952 30.956 21.856 31.028C21.76 31.076 21.592 31.172 21.352 31.316C21.136 31.436 20.896 31.568 20.632 31.712C20.368 31.856 20.116 31.988 19.876 32.108C19.636 32.228 19.48 32.288 19.408 32.288C19.168 32.312 18.856 32.336 18.472 32.36C18.088 32.384 17.692 32.408 17.284 32.432C16.876 32.456 16.48 32.468 16.096 32.468C15.712 32.492 15.4 32.504 15.16 32.504H14.764C14.692 32.456 14.644 32.408 14.62 32.36C14.596 32.312 14.572 32.264 14.548 32.216C14.524 32.168 14.512 32.132 14.512 32.108V30.092ZM17.212 25.232C17.188 25.808 17.176 26.48 17.176 27.248C17.176 28.016 17.188 28.688 17.212 29.264C17.908 29.216 18.484 29.108 18.94 28.94C19.396 28.748 19.876 28.46 20.38 28.076C20.716 27.836 20.944 27.584 21.064 27.32C21.208 27.032 21.34 26.744 21.46 26.456C21.58 26.24 21.676 25.988 21.748 25.7C21.844 25.412 21.94 25.136 22.036 24.872C22.084 24.728 22.144 24.524 22.216 24.26C22.312 23.996 22.36 23.768 22.36 23.576C22.36 23.456 22.384 23.228 22.432 22.892C22.504 22.532 22.528 22.292 22.504 22.172V21.524C22.504 21.092 22.516 20.624 22.54 20.12C22.588 19.616 22.576 18.992 22.504 18.248V18.032C22.456 17.408 22.288 16.892 22 16.484C21.712 16.076 21.364 15.632 20.956 15.152C20.764 14.912 20.536 14.732 20.272 14.612C20.032 14.492 19.6 14.324 18.976 14.108C18.784 14.036 18.52 13.988 18.184 13.964C17.848 13.916 17.548 13.88 17.284 13.856C17.236 13.952 17.212 14.012 17.212 14.036V14.108V14.396C17.164 14.66 17.14 14.996 17.14 15.404C17.164 15.788 17.176 16.148 17.176 16.484C17.176 16.892 17.188 17.36 17.212 17.888C17.236 18.416 17.224 18.956 17.176 19.508C17.176 19.628 17.164 19.76 17.14 19.904C17.14 20.048 17.14 20.18 17.14 20.3C17.164 20.612 17.164 20.924 17.14 21.236C17.116 21.548 17.14 21.872 17.212 22.208C17.164 22.712 17.152 23.216 17.176 23.72C17.224 24.224 17.236 24.728 17.212 25.232Z" fill="white"/>
<path d="M14.512 30.092C14.536 29.948 14.536 29.804 14.512 29.66C14.488 29.516 14.5 29.36 14.548 29.192C14.572 29.144 14.584 29.06 14.584 28.94C14.608 28.82 14.608 28.724 14.584 28.652L14.476 27.536C14.452 27.344 14.452 27.152 14.476 26.96C14.5 26.744 14.512 26.528 14.512 26.312C14.488 26.216 14.476 26.132 14.476 26.06C14.5 25.964 14.512 25.868 14.512 25.772C14.488 25.508 14.5 25.232 14.548 24.944C14.62 24.656 14.632 24.38 14.584 24.116C14.584 24.092 14.584 24.032 14.584 23.936C14.584 23.84 14.584 23.744 14.584 23.648C14.584 23.528 14.584 23.42 14.584 23.324C14.608 23.228 14.62 23.168 14.62 23.144C14.644 22.688 14.644 22.208 14.62 21.704C14.62 21.152 14.62 20.66 14.62 20.228C14.62 19.772 14.644 19.388 14.692 19.076C14.716 18.956 14.728 18.812 14.728 18.644C14.728 18.452 14.728 18.26 14.728 18.068C14.704 17.804 14.68 17.516 14.656 17.204C14.656 16.892 14.656 16.58 14.656 16.268C14.656 15.716 14.644 15.236 14.62 14.828C14.62 14.396 14.608 13.904 14.584 13.352C14.584 13.16 14.572 12.98 14.548 12.812C14.524 12.62 14.524 12.428 14.548 12.236C14.548 12.188 14.548 12.068 14.548 11.876C14.548 11.684 14.56 11.564 14.584 11.516C14.584 11.492 14.596 11.468 14.62 11.444C14.692 11.372 14.752 11.336 14.8 11.336H17.392C17.728 11.336 18.064 11.336 18.4 11.336C18.76 11.336 19.084 11.348 19.372 11.372C19.636 11.396 19.912 11.456 20.2 11.552C20.512 11.648 20.764 11.732 20.956 11.804C21.58 12.02 22.012 12.188 22.252 12.308C22.516 12.428 22.768 12.584 23.008 12.776C23.224 12.944 23.452 13.1 23.692 13.244C23.932 13.388 24.172 13.556 24.412 13.748C24.652 13.916 24.88 14.132 25.096 14.396C25.336 14.636 25.552 14.948 25.744 15.332C25.888 15.62 26.056 15.92 26.248 16.232C26.464 16.544 26.56 16.868 26.536 17.204C26.656 17.564 26.716 17.876 26.716 18.14C26.74 18.404 26.812 18.644 26.932 18.86C27.052 19.388 27.112 19.94 27.112 20.516C27.112 21.092 27.052 21.62 26.932 22.1C26.956 22.436 26.92 22.772 26.824 23.108C26.752 23.444 26.704 23.78 26.68 24.116C26.656 24.404 26.62 24.632 26.572 24.8C26.548 24.968 26.5 25.112 26.428 25.232C26.38 25.352 26.32 25.472 26.248 25.592C26.2 25.712 26.14 25.868 26.068 26.06C26.044 26.132 25.984 26.252 25.888 26.42C25.792 26.564 25.684 26.72 25.564 26.888C25.468 27.056 25.36 27.224 25.24 27.392C25.144 27.536 25.084 27.644 25.06 27.716C24.916 28.124 24.724 28.424 24.484 28.616C24.268 28.784 23.98 29.06 23.62 29.444C23.548 29.516 23.428 29.636 23.26 29.804C23.116 29.948 22.948 30.104 22.756 30.272C22.588 30.44 22.42 30.596 22.252 30.74C22.084 30.86 21.952 30.956 21.856 31.028C21.76 31.076 21.592 31.172 21.352 31.316C21.136 31.436 20.896 31.568 20.632 31.712C20.368 31.856 20.116 31.988 19.876 32.108C19.636 32.228 19.48 32.288 19.408 32.288C19.168 32.312 18.856 32.336 18.472 32.36C18.088 32.384 17.692 32.408 17.284 32.432C16.876 32.456 16.48 32.468 16.096 32.468C15.712 32.492 15.4 32.504 15.16 32.504H14.764C14.692 32.456 14.644 32.408 14.62 32.36C14.596 32.312 14.572 32.264 14.548 32.216C14.524 32.168 14.512 32.132 14.512 32.108V30.092ZM17.212 25.232C17.188 25.808 17.176 26.48 17.176 27.248C17.176 28.016 17.188 28.688 17.212 29.264C17.908 29.216 18.484 29.108 18.94 28.94C19.396 28.748 19.876 28.46 20.38 28.076C20.716 27.836 20.944 27.584 21.064 27.32C21.208 27.032 21.34 26.744 21.46 26.456C21.58 26.24 21.676 25.988 21.748 25.7C21.844 25.412 21.94 25.136 22.036 24.872C22.084 24.728 22.144 24.524 22.216 24.26C22.312 23.996 22.36 23.768 22.36 23.576C22.36 23.456 22.384 23.228 22.432 22.892C22.504 22.532 22.528 22.292 22.504 22.172V21.524C22.504 21.092 22.516 20.624 22.54 20.12C22.588 19.616 22.576 18.992 22.504 18.248V18.032C22.456 17.408 22.288 16.892 22 16.484C21.712 16.076 21.364 15.632 20.956 15.152C20.764 14.912 20.536 14.732 20.272 14.612C20.032 14.492 19.6 14.324 18.976 14.108C18.784 14.036 18.52 13.988 18.184 13.964C17.848 13.916 17.548 13.88 17.284 13.856C17.236 13.952 17.212 14.012 17.212 14.036V14.108V14.396C17.164 14.66 17.14 14.996 17.14 15.404C17.164 15.788 17.176 16.148 17.176 16.484C17.176 16.892 17.188 17.36 17.212 17.888C17.236 18.416 17.224 18.956 17.176 19.508C17.176 19.628 17.164 19.76 17.14 19.904C17.14 20.048 17.14 20.18 17.14 20.3C17.164 20.612 17.164 20.924 17.14 21.236C17.116 21.548 17.14 21.872 17.212 22.208C17.164 22.712 17.152 23.216 17.176 23.72C17.224 24.224 17.236 24.728 17.212 25.232Z" fill="white"/>
<path d="M14.512 30.092C14.536 29.948 14.536 29.804 14.512 29.66C14.488 29.516 14.5 29.36 14.548 29.192C14.572 29.144 14.584 29.06 14.584 28.94C14.608 28.82 14.608 28.724 14.584 28.652L14.476 27.536C14.452 27.344 14.452 27.152 14.476 26.96C14.5 26.744 14.512 26.528 14.512 26.312C14.488 26.216 14.476 26.132 14.476 26.06C14.5 25.964 14.512 25.868 14.512 25.772C14.488 25.508 14.5 25.232 14.548 24.944C14.62 24.656 14.632 24.38 14.584 24.116C14.584 24.092 14.584 24.032 14.584 23.936C14.584 23.84 14.584 23.744 14.584 23.648C14.584 23.528 14.584 23.42 14.584 23.324C14.608 23.228 14.62 23.168 14.62 23.144C14.644 22.688 14.644 22.208 14.62 21.704C14.62 21.152 14.62 20.66 14.62 20.228C14.62 19.772 14.644 19.388 14.692 19.076C14.716 18.956 14.728 18.812 14.728 18.644C14.728 18.452 14.728 18.26 14.728 18.068C14.704 17.804 14.68 17.516 14.656 17.204C14.656 16.892 14.656 16.58 14.656 16.268C14.656 15.716 14.644 15.236 14.62 14.828C14.62 14.396 14.608 13.904 14.584 13.352C14.584 13.16 14.572 12.98 14.548 12.812C14.524 12.62 14.524 12.428 14.548 12.236C14.548 12.188 14.548 12.068 14.548 11.876C14.548 11.684 14.56 11.564 14.584 11.516C14.584 11.492 14.596 11.468 14.62 11.444C14.692 11.372 14.752 11.336 14.8 11.336H17.392C17.728 11.336 18.064 11.336 18.4 11.336C18.76 11.336 19.084 11.348 19.372 11.372C19.636 11.396 19.912 11.456 20.2 11.552C20.512 11.648 20.764 11.732 20.956 11.804C21.58 12.02 22.012 12.188 22.252 12.308C22.516 12.428 22.768 12.584 23.008 12.776C23.224 12.944 23.452 13.1 23.692 13.244C23.932 13.388 24.172 13.556 24.412 13.748C24.652 13.916 24.88 14.132 25.096 14.396C25.336 14.636 25.552 14.948 25.744 15.332C25.888 15.62 26.056 15.92 26.248 16.232C26.464 16.544 26.56 16.868 26.536 17.204C26.656 17.564 26.716 17.876 26.716 18.14C26.74 18.404 26.812 18.644 26.932 18.86C27.052 19.388 27.112 19.94 27.112 20.516C27.112 21.092 27.052 21.62 26.932 22.1C26.956 22.436 26.92 22.772 26.824 23.108C26.752 23.444 26.704 23.78 26.68 24.116C26.656 24.404 26.62 24.632 26.572 24.8C26.548 24.968 26.5 25.112 26.428 25.232C26.38 25.352 26.32 25.472 26.248 25.592C26.2 25.712 26.14 25.868 26.068 26.06C26.044 26.132 25.984 26.252 25.888 26.42C25.792 26.564 25.684 26.72 25.564 26.888C25.468 27.056 25.36 27.224 25.24 27.392C25.144 27.536 25.084 27.644 25.06 27.716C24.916 28.124 24.724 28.424 24.484 28.616C24.268 28.784 23.98 29.06 23.62 29.444C23.548 29.516 23.428 29.636 23.26 29.804C23.116 29.948 22.948 30.104 22.756 30.272C22.588 30.44 22.42 30.596 22.252 30.74C22.084 30.86 21.952 30.956 21.856 31.028C21.76 31.076 21.592 31.172 21.352 31.316C21.136 31.436 20.896 31.568 20.632 31.712C20.368 31.856 20.116 31.988 19.876 32.108C19.636 32.228 19.48 32.288 19.408 32.288C19.168 32.312 18.856 32.336 18.472 32.36C18.088 32.384 17.692 32.408 17.284 32.432C16.876 32.456 16.48 32.468 16.096 32.468C15.712 32.492 15.4 32.504 15.16 32.504H14.764C14.692 32.456 14.644 32.408 14.62 32.36C14.596 32.312 14.572 32.264 14.548 32.216C14.524 32.168 14.512 32.132 14.512 32.108V30.092ZM17.212 25.232C17.188 25.808 17.176 26.48 17.176 27.248C17.176 28.016 17.188 28.688 17.212 29.264C17.908 29.216 18.484 29.108 18.94 28.94C19.396 28.748 19.876 28.46 20.38 28.076C20.716 27.836 20.944 27.584 21.064 27.32C21.208 27.032 21.34 26.744 21.46 26.456C21.58 26.24 21.676 25.988 21.748 25.7C21.844 25.412 21.94 25.136 22.036 24.872C22.084 24.728 22.144 24.524 22.216 24.26C22.312 23.996 22.36 23.768 22.36 23.576C22.36 23.456 22.384 23.228 22.432 22.892C22.504 22.532 22.528 22.292 22.504 22.172V21.524C22.504 21.092 22.516 20.624 22.54 20.12C22.588 19.616 22.576 18.992 22.504 18.248V18.032C22.456 17.408 22.288 16.892 22 16.484C21.712 16.076 21.364 15.632 20.956 15.152C20.764 14.912 20.536 14.732 20.272 14.612C20.032 14.492 19.6 14.324 18.976 14.108C18.784 14.036 18.52 13.988 18.184 13.964C17.848 13.916 17.548 13.88 17.284 13.856C17.236 13.952 17.212 14.012 17.212 14.036V14.108V14.396C17.164 14.66 17.14 14.996 17.14 15.404C17.164 15.788 17.176 16.148 17.176 16.484C17.176 16.892 17.188 17.36 17.212 17.888C17.236 18.416 17.224 18.956 17.176 19.508C17.176 19.628 17.164 19.76 17.14 19.904C17.14 20.048 17.14 20.18 17.14 20.3C17.164 20.612 17.164 20.924 17.14 21.236C17.116 21.548 17.14 21.872 17.212 22.208C17.164 22.712 17.152 23.216 17.176 23.72C17.224 24.224 17.236 24.728 17.212 25.232Z" fill="white"/>
<path d="M57.804 26.388C57.804 26.58 57.816 26.688 57.84 26.712C57.864 26.736 57.852 26.88 57.804 27.144V33.12C57.804 33.6 57.768 34.104 57.696 34.632C57.624 35.136 57.588 35.628 57.588 36.108C57.588 36.54 57.564 36.924 57.516 37.26C57.468 37.572 57.444 37.896 57.444 38.232C57.444 38.424 57.396 38.724 57.3 39.132C57.228 39.54 57.132 39.912 57.012 40.248C56.916 40.344 56.856 40.476 56.832 40.644C56.808 40.812 56.736 41.004 56.616 41.22C56.592 41.268 56.508 41.412 56.364 41.652C56.22 41.868 56.052 42.096 55.86 42.336C55.692 42.576 55.536 42.804 55.392 43.02C55.248 43.212 55.164 43.32 55.14 43.344C54.828 43.608 54.576 43.824 54.384 43.992C54.216 44.136 53.928 44.292 53.52 44.46C53.472 44.508 53.34 44.544 53.124 44.568C52.908 44.592 52.776 44.628 52.728 44.676C52.536 44.772 52.296 44.832 52.008 44.856C51.744 44.88 51.456 44.952 51.144 45.072H50.496C50.232 45.12 49.956 45.144 49.668 45.144C49.404 45.168 49.2 45.18 49.056 45.18C48.768 45.18 48.408 45.168 47.976 45.144C47.568 45.144 47.136 45.132 46.68 45.108C46.248 45.108 45.816 45.096 45.384 45.072C44.952 45.072 44.568 45.072 44.232 45.072C43.896 45.072 43.536 45.036 43.152 44.964C42.792 44.868 42.48 44.772 42.216 44.676C42.168 44.628 42.072 44.604 41.928 44.604C41.784 44.58 41.664 44.544 41.568 44.496C41.472 44.448 41.316 44.388 41.1 44.316C40.908 44.22 40.704 44.136 40.488 44.064C40.272 43.968 40.068 43.872 39.876 43.776C39.708 43.68 39.6 43.608 39.552 43.56C39.096 43.32 38.568 42.936 37.968 42.408C37.368 41.88 36.876 41.184 36.492 40.32C36.324 39.96 36.156 39.636 35.988 39.348C35.82 39.036 35.7 38.712 35.628 38.376C35.556 38.04 35.484 37.704 35.412 37.368C35.364 37.008 35.316 36.672 35.268 36.36C35.22 36.096 35.208 35.844 35.232 35.604C35.256 35.364 35.268 35.088 35.268 34.776V33.48C35.244 33.24 35.208 32.928 35.16 32.544C35.136 32.136 35.172 31.836 35.268 31.644V25.992C35.292 25.968 35.352 25.956 35.448 25.956C35.568 25.932 35.7 25.908 35.844 25.884C35.988 25.86 36.132 25.848 36.276 25.848C36.42 25.824 36.54 25.812 36.636 25.812C36.972 25.812 37.272 25.848 37.536 25.92C37.824 25.968 38.064 25.992 38.256 25.992C38.592 26.04 38.904 26.076 39.192 26.1C39.504 26.124 39.816 26.088 40.128 25.992C40.248 26.088 40.308 26.22 40.308 26.388C40.332 26.532 40.344 26.652 40.344 26.748C40.344 27.18 40.332 27.612 40.308 28.044C40.284 28.452 40.248 28.92 40.2 29.448C40.2 29.832 40.188 30.276 40.164 30.78C40.14 31.284 40.128 31.776 40.128 32.256V34.092C40.128 34.62 40.128 35.1 40.128 35.532C40.152 35.964 40.224 36.444 40.344 36.972C40.344 37.044 40.368 37.212 40.416 37.476C40.464 37.716 40.524 37.98 40.596 38.268C40.668 38.556 40.728 38.832 40.776 39.096C40.848 39.36 40.908 39.528 40.956 39.6C41.052 39.696 41.136 39.828 41.208 39.996C41.28 40.14 41.34 40.284 41.388 40.428C41.556 40.788 41.796 41.076 42.108 41.292C42.444 41.508 42.78 41.748 43.116 42.012C43.38 42.228 43.656 42.408 43.944 42.552C44.232 42.672 44.568 42.78 44.952 42.876C45 42.9 45.084 42.912 45.204 42.912C45.348 42.912 45.48 42.912 45.6 42.912L46.536 42.984C46.728 43.008 46.932 43.032 47.148 43.056C47.388 43.056 47.604 43.032 47.796 42.984L48.444 42.84C48.468 42.84 48.552 42.816 48.696 42.768C48.84 42.696 48.984 42.624 49.128 42.552C49.296 42.48 49.452 42.42 49.596 42.372C49.764 42.3 49.872 42.24 49.92 42.192C50.328 41.928 50.64 41.676 50.856 41.436C51.072 41.172 51.276 40.836 51.468 40.428C51.516 40.284 51.6 40.056 51.72 39.744C51.84 39.408 51.936 39.18 52.008 39.06C52.128 38.7 52.2 38.376 52.224 38.088C52.272 37.8 52.32 37.5 52.368 37.188C52.368 36.996 52.368 36.528 52.368 35.784C52.368 35.04 52.392 33.96 52.44 32.544C52.464 32.04 52.476 31.536 52.476 31.032C52.476 30.528 52.476 30.024 52.476 29.52C52.5 28.992 52.5 28.452 52.476 27.9C52.452 27.348 52.464 26.844 52.512 26.388H52.728C53.064 26.484 53.412 26.508 53.772 26.46C54.156 26.412 54.564 26.388 54.996 26.388H56.184C56.304 26.388 56.484 26.412 56.724 26.46C56.988 26.484 57.348 26.46 57.804 26.388Z" fill="white"/>
<circle cx="28" cy="36" r="5" fill="#0F644B"/>
</svg>
